<?xml version="1.0" standalone="no"?>
<!DOCTYPE svg PUBLIC "-//W3C//DTD SVG 1.1//EN" "http://www.w3.org/Graphics/SVG/1.1/DTD/svg11.dtd" >
<svg xmlns="http://www.w3.org/2000/svg">
<metadata>
This is a custom SVG webfont generated by Font Squirrel.
Copyright   : C Tepid Monkey Fontswwwfontframecomtepidmonkey
</metadata>
<defs>
<font id="webfontOOOSSltn" horiz-adv-x="911" >
<font-face units-per-em="2048" ascent="1638" descent="-410" />
<missing-glyph horiz-adv-x="536" />
<glyph unicode=" "  horiz-adv-x="536" />
<glyph unicode="&#x09;" horiz-adv-x="536" />
<glyph unicode="&#xa0;" horiz-adv-x="536" />
<glyph unicode="!" horiz-adv-x="733" d="M-39 90q0 10 7 31.5t7 32.5q8 0 24.5 7t27.5 7q25 0 74 -57.5t49 -83.5q0 -82 -74 -82q-53 0 -84 45t-31 100zM102 403q0 96 266.5 507t333.5 411q20 0 52 -45t32 -68q0 -31 -184 -266l-227 -291l-94 -159q-57 -94 -123 -136h-39q-17 14 -17 47z" />
<glyph unicode="&#x22;" horiz-adv-x="372" d="M-10 1057q0 94 47 260q121 -47 121 -119q0 -55 -43 -340h-41q-84 62 -84 199zM233 1147q0 43 17 115q20 90 49 90q49 0 100 -86v-76q0 -270 -18 -318l2 -8q-8 -2 -21 -6q-53 0 -94 119q-35 100 -35 170z" />
<glyph unicode="#" horiz-adv-x="1583" d="M68 354q0 33 88 60q68 20 116 20l11 -4q0 -6 -4.5 -6t-6.5 -4q0 -4 2 -4l11 -4q51 0 145 61.5t96 108.5l-18 6q-35 0 -191 -94q-66 68 -65 122q0 72 102 119q59 27 199 56q115 23 129 37t88 151q68 129 78 129q59 0 78 -64q6 -41 20 -120q14 -66 74 -66q43 0 74 14 q14 6 149 209q125 188 182 189q23 0 49.5 -40t26.5 -65q0 -41 -188 -291v-30l188 -47q4 -25 10 -78l-235 -12q-111 -16 -174 -146q66 -12 409 -69q0 -29 15 -52q-39 -39 -246 -51q-236 -12 -276 -29q-20 -8 -101 -206q-76 -190 -125 -191q-29 0 -53 49q-23 43 -23 76 q0 18 95 266q-186 0 -281 -110l-172 -256q-92 43 -92 114q0 57 61 148q-14 4 -28 4q-20 0 -62.5 -9t-62.5 -9q-31 0 -61.5 42.5t-30.5 75.5zM725 532q102 0 162 -14q25 70 74 121v43q-115 0 -148 -31z" />
<glyph unicode="$" horiz-adv-x="946" d="M-51 494q0 23 26 65q92 -20 191 -188q37 27 120 148.5t83 156.5q0 -63 -58.5 74t-58.5 178q0 164 227 164q29 0 83 -3.5t83 -3.5q12 0 143.5 181.5t153.5 181.5q27 0 49.5 -35t22.5 -63q0 -14 -86 -150q-96 -152 -103 -166q143 -72 144 -203q0 -33 -13 -61 q-158 139 -188 139q-12 0 -117.5 -121.5t-105.5 -140.5q0 6 58.5 -79t58.5 -150l-13 -19q-6 -45 -94 -119.5t-133 -72.5l-78 2q-61 2 -94 -39l-60 -102l-94 -164q-16 4 -45 28l-43 33q14 47 105 301q-164 154 -164 228zM354 326l122 44q81 30 81 83q0 23 -65 94l-74 -107 q-44 -61 -64 -114zM381 881l37 -58q20 -31 41 -43q31 55 98 164q-110 0 -176 -63z" />
<glyph unicode="%" horiz-adv-x="1361" d="M117 616q0 162 168 339.5t329 177.5q186 0 199 -293q203 215 389 315q0 -47 -37 -98q-8 -10 -71 -82l6 -17q-51 -86 -250 -317q-88 -102 -234.5 -327.5t-232.5 -325.5q-31 6 -50.5 36.5t-19.5 63.5q0 51 142 283q123 201 186 286v5l-16 2q-186 -102 -306 -105l-79 -96 h-39q-84 53 -84 153zM303 735h86q49 0 169 58.5t153 95.5v53q-27 27 -52 27q-18 0 -45.5 -30t-42.5 -30q-8 0 -23.5 6.5t-23.5 6.5q-80 -1 -221 -187zM641 135q0 78 120 287t187 237q33 14 64 15q96 0 162 -119q53 -98 53 -205q0 -143 -142 -260q-133 -113 -280 -113 q-164 0 -164 158zM795 131h86q66 0 147.5 86t81.5 152q0 35 -16 84q-18 59 -45 59q-20 0 -125 -172z" />
<glyph unicode="&#x26;" horiz-adv-x="1265" d="M61 281q0 248 367 458l262 148l-14 215q0 127 58.5 180t187.5 51l168 -96q90 -70 90 -160q0 -113 -146 -192l-235 -119l30 -281q20 -152 105 -262q31 25 47 64q18 55 29 69l-19 19q-10 -23 -28 -23q-23 0 -46.5 37t-23.5 62q0 78 63 77q68 0 119 -68.5t51 -137.5 q0 -174 -252 -310q-217 -117 -409 -116q-154 0 -279 116.5t-125 268.5zM203 227q0 -88 59.5 -140t149.5 -52q96 0 215 41q27 8 207 80q-66 158 -144 557q-141 -55 -301 -197q-186 -166 -186 -289zM788 948h41q90 47 140 76q88 51 98 109q-123 61 -164 61q-35 0 -75 -33 t-40 -67v-146z" />
<glyph unicode="'" horiz-adv-x="161" d="M10 1122q0 41 17 113q20 90 47 90q49 0 98 -86v-74q0 -266 -16 -315l2 -6q-8 -4 -21 -8q-53 0 -94 118q-33 96 -33 168z" />
<glyph unicode="(" horiz-adv-x="808" d="M117 514q0 133 72.5 325.5t162.5 290.5q70 76 109 76h145q10 -39 10 -61q0 -49 -67 -96l-105 -74q-57 -55 -122 -244q-63 -180 -64 -270q0 -119 82 -207q37 -39 168 -127q106 -72 137 -133q-207 0 -367.5 156.5t-160.5 363.5z" />
<glyph unicode=")" horiz-adv-x="802" d="M115 16q207 135 278 197q166 143 166 276q0 131 -98 277q-23 33 -180 223q-96 117 -97 178q0 47 47 47q61 0 189 -118q115 -109 158 -178q45 -76 77.5 -226.5t32.5 -242.5q0 -80 -117 -228q-186 -233 -432 -280z" />
<glyph unicode="*" horiz-adv-x="817" d="M-43 868q0 59 121 115l174 64l-59 110q-23 53 -23 125q12 14 41 14q53 0 98 -84l66 -127l45 134q35 102 67 102q47 0 77 -34t30 -83q0 -51 -37 -88q61 -6 184 -22q135 -18 136 -80q0 -53 -140 -74l-182 -18l-20 -19l151 -174v-55q-59 0 -117 45l-100 84q-23 -20 -68 -158 q-37 -113 -108 -113q-47 0 -70 50l-28 88q35 4 45 4q23 0 39 82q20 94 22 100l-20 6q-43 0 -120 -35.5t-120 -35.5q-23 0 -53.5 27t-30.5 50z" />
<glyph unicode="+" horiz-adv-x="925" d="M43 494q0 31 16 53q78 4 232 16q0 51 -11.5 150.5t-11.5 150.5q0 88 23 156q113 -45 112 -227q0 -25 -2 -71t-2 -71q0 -37 4 -63h136q23 0 65.5 12t65.5 12q57 0 108 -18q72 -27 72 -70t-186 -88l-236 -55q4 -16 45 -156q27 -92 27 -157q0 -76 -41 -76q-53 0 -99 166 l-57 217q-70 -4 -201 14q-59 23 -59 105z" />
<glyph unicode="," horiz-adv-x="722" d="M162 -117q2 0 133 76q76 43 123 90l6 47q39 51 45 160q2 86 2 172q127 -14 127 -221q0 -160 -84 -283q-94 -141 -246 -141q-45 0 -64 33z" />
<glyph unicode="-" d="M111 461q0 16 2 28q55 39 241 78q168 35 260 35q184 0 201 -127q-53 -16 -149 -31q-162 -23 -322 -73q-123 -39 -158 -39q-39 0 -59 47q-16 37 -16 82z" />
<glyph unicode="." horiz-adv-x="464" d="M152 117q0 37 20 82q25 55 55 55q41 0 83 -55.5t42 -98.5q0 -39 -29.5 -63.5t-70.5 -24.5q-45 0 -72.5 30t-27.5 75z" />
<glyph unicode="/" horiz-adv-x="851" d="M-37 104q0 31 29 66l51 53q80 84 223 330q117 201 266 311q66 49 173.5 176t177.5 177q31 -18 30 -64q0 -68 -36 -111q-8 -12 -86 -79q-43 -37 -98.5 -138.5t-100.5 -138.5q-129 -104 -211 -227q-35 -51 -119 -213q-72 -137 -149 -230q-31 -37 -66 -36q-29 0 -56.5 46.5 t-27.5 77.5z" />
<glyph unicode="0" horiz-adv-x="1218" d="M31 303q0 74 63 248q39 104 199 303q178 219 256 219q10 0 22.5 -10t24.5 -12q182 188 324 188q123 0 186 -102q55 -88 55 -217q0 -209 -96 -433q-104 -242 -262 -348q-33 -14 -115 -59q-12 -6 -16 -27l-142 -69q-72 -29 -155 -29q-158 0 -251 95t-93 253zM162 244 q0 -170 182 -170q12 0 34.5 5t35.5 5q70 0 184 55q98 47 168 103q137 109 221 307q80 186 80 371q0 166 -94 165q-141 0 -297 -139l-250 -237l-35 47q-82 -84 -153 -240q-76 -161 -76 -272z" />
<glyph unicode="1" horiz-adv-x="538" d="M-23 106q0 84 216 570q203 457 282 586q102 -47 103 -136q0 -35 -238 -565q-231 -514 -285 -614q-78 73 -78 159z" />
<glyph unicode="2" horiz-adv-x="1116" d="M18 295q0 106 95 151q59 29 186 43q121 12 139 29q45 37 45 277q0 84 -32 141q-41 72 -119 72q-72 0 -99 -35q-6 -6 -28 -62q-14 -33 -49 -32q-31 0 -60 73q-25 63 -24 103q0 47 102 92q86 37 145 37q121 0 213 -131q82 -119 82 -246q0 -205 -28 -293q164 -12 489 -49 q-23 -27 -74 -74q-45 -33 -219 -39q-188 -6 -239 -28l-117 -181q-115 -170 -229 -170q-82 0 -136 125q-43 103 -43 197zM158 217q0 -61 71 -61q27 0 57.5 52t30.5 81q0 43 -71 43q-27 0 -57.5 -43t-30.5 -72z" />
<glyph unicode="3" horiz-adv-x="761" d="M33 115q0 100 123 100q14 0 42.5 -23.5t45.5 -23.5q59 0 171.5 105.5t112.5 164.5q0 55 -75 97q-63 35 -125 34q-27 0 -86.5 -7t-89.5 -5l-48 2q-12 55 -12 152q193 68 254 96q133 59 232 147q-8 27 -43 58q-33 0 -98.5 4t-98.5 4h-49q-25 -23 -58 -23q-43 0 -73.5 33 t-30.5 76q0 109 94 108q532 0 533 -215q0 -209 -201 -344q82 -133 82 -223q0 -156 -144.5 -305.5t-300.5 -149.5q-61 0 -109 39.5t-48 98.5z" />
<glyph unicode="4" horiz-adv-x="788" d="M-35 649q0 170 160 357h41q25 -37 74 -138q-41 -25 -88 -77q-53 -61 -54 -99q0 -37 64 -63q51 -23 96 -25l260 361q176 242 287 313q39 -63 39 -88q0 -29 -170 -275l-209 -303q35 -8 74 -8q41 0 79 10q-47 -63 -145 -184q-23 6 -43 6q-86 0 -156 -104l-110 -209 q-66 -125 -135 -158q-14 39 -15 53q0 127 131 381v31q-180 55 -180 219z" />
<glyph unicode="5" horiz-adv-x="942" d="M-55 199q0 78 32 102q23 16 107 29q25 -88 43 -109q31 -33 111 -33q49 0 90 17q57 20 57 59q0 45 -117 260q-14 29 -56 201t-42 207q0 49 14 90q10 29 121 105.5t144 76.5q14 0 42.5 -23.5t45.5 -23.5q53 0 159.5 23.5t159.5 23.5q154 0 154 -119q0 -35 -27 -55 q-121 -16 -362 -53q-285 -49 -285 -133q0 -74 100.5 -305.5t100.5 -339.5q0 -88 -105 -154q-92 -59 -186 -59t-191 59q-110 66 -110 154z" />
<glyph unicode="6" horiz-adv-x="866" d="M-14 268q0 125 188 398q147 211 287 356q193 201 295 201q55 0 94 -101q-2 -47 -39 -73q-39 -16 -117 -54q-78 -49 -270 -274q-199 -233 -199 -303v-12q92 55 131 73q72 33 146 33q88 0 149 -88q57 -80 58 -172q0 -109 -183 -203q-158 -82 -280 -82q-117 0 -191 94 q-69 88 -69 207zM223 158h86q41 0 140.5 53t115.5 86q-39 14 -53 14q-74 0 -158 -46t-131 -107z" />
<glyph unicode="7" horiz-adv-x="714" d="M27 1094l2 24q250 102 581 103q86 0 121 -39t35 -127q0 -197 -434 -953q-72 -125 -125 -125q-72 0 -72 125q0 66 146 250q188 238 196 252q41 72 74 217q37 166 61 221h-90q-74 0 -212 -51t-212 -51q-39 0 -59 61q-16 50 -12 93z" />
<glyph unicode="8" horiz-adv-x="923" d="M-53 170q0 88 151 240q145 145 240 170q-8 37 -49 151q-35 96 -35 154q0 231 137 231q96 0 195 -145l-11 -94l-8 6l-43 -11q-39 55 -92 56q-31 0 -39 -10.5t-8 -43.5q0 -43 12 -94l23 -92v-2l18 -8q88 0 260 166t172 254q0 43 -73.5 72.5t-73.5 50.5q0 4 14 75 q45 14 58 15q53 0 113.5 -77t60.5 -130q0 -12 10 -32.5t10 -33.5q0 -12 -35 -82q-109 -215 -440 -450q2 -37 25.5 -113t23.5 -117q0 -137 -121 -225q-109 -82 -249 -82q-104 0 -170 47q-76 54 -76 154zM113 164q0 -35 47 -35q80 0 180 49q117 57 117 127q0 18 -23 68 q-20 43 -31 69q-18 -35 -161 -143q-129 -98 -129 -135z" />
<glyph unicode="9" horiz-adv-x="806" d="M-4 870q0 174 203 295q176 104 364 105q96 0 187.5 -100.5t91.5 -196.5q0 -31 -21 -66q-33 -55 -35 -61q-16 -53 -61 -189q-41 -113 -176 -364q-156 -291 -213 -291q-78 0 -78 92q0 100 131 285q147 209 168 297q-41 -6 -145 -29q-94 -20 -148 -20q-268 -1 -268 243z M117 852q0 -35 141 -35q125 0 244 37q145 43 209 123q-16 43 -88 76q-61 27 -115 26q-51 0 -80 -4q-57 -8 -180 -90q-131 -86 -131 -133z" />
<glyph unicode=":" horiz-adv-x="460" d="M162 137v86q0 14 31 15q45 0 102 -53.5t57 -96.5q0 -74 -47 -74q-37 0 -90 43t-53 80zM186 717v86q43 14 41 14q49 0 86 -47t37 -98q0 -57 -57 -58q-29 0 -68 37t-39 66z" />
<glyph unicode=";" horiz-adv-x="448" d="M109 -174q0 14 28 65q35 63 39 72q27 70 47 189l4 112q4 70 41 103q31 -25 59.5 -76t28.5 -88q0 -100 -47 -250q-59 -186 -129 -186h-41q-30 0 -30 59zM250 762q0 23 24.5 49.5t47.5 26.5q16 0 55 -47.5t39 -65.5q0 -84 -64 -84q-43 0 -72.5 38t-29.5 83z" />
<glyph unicode="&#x3c;" horiz-adv-x="909" d="M80 403v97q178 20 489 297q109 96 115 96q20 0 51 -37t31 -57q0 -66 -197 -211q-225 -166 -254 -209q174 -33 199 -39q117 -31 182 -80q-39 -66 -78 -65q-123 0 -241 20q-158 27 -221 78q-76 61 -76 110z" />
<glyph unicode="=" horiz-adv-x="1007" d="M84 578q0 53 29 96q39 2 258 10q160 6 258 6q43 0 270 -39l49 -35v-75q-455 -61 -776 -62q-88 1 -88 99zM156 119v125q51 20 212.5 45.5t225.5 25.5q180 0 258 -26q29 -20 96 -45l-28 -54q-395 -96 -691 -96q-26 0 -73 25z" />
<glyph unicode="&#x3e;" horiz-adv-x="786" d="M109 737l14 88q127 -70 307 -194q242 -168 242 -217q0 -33 -25 -66q-117 -27 -362 -205q-94 29 -95 76q0 78 271 238q-27 27 -189 127q-118 73 -163 153z" />
<glyph unicode="?" horiz-adv-x="688" d="M-16 1081v13q84 70 217 133q147 70 239 69q106 0 176 -88q66 -80 66 -188q0 -119 -90 -203q-59 -55 -203 -123q-156 -74 -205 -108l74 -72q20 -25 21 -108q0 -14 -29 -15q-205 0 -205 232q0 14 2 69q55 41 203.5 99.5t208.5 99.5q104 72 104 158q0 59 -112 59 q-170 0 -402 -201q-65 2 -65 174zM244 139q0 20 7 58.5t7 58.5q8 0 27.5 7t29.5 7q35 0 82 -58t47 -95q0 -43 -33.5 -75t-76.5 -32q-90 0 -90 129z" />
<glyph unicode="@" horiz-adv-x="1572" d="M23 526q0 338 323 551q285 186 641 187q281 0 397 -136q86 -100 113 -159q35 -78 35 -191v-35q2 -23 2 -34q0 -137 -240 -260q-211 -109 -366 -109q-55 0 -152 139q-31 -25 -94 -69q-51 -35 -111 -35q-72 0 -114 59q-37 51 -37 127q0 111 151.5 249t264.5 138 q74 0 118 -82q39 -68 39 -147q0 -80 -12 -101l-59 -75v-29q70 -2 110 10q16 4 101 45l184 88q96 66 96 168q0 150 -133 232q-111 68 -270 67q-303 0 -557 -184q-279 -203 -279 -496q0 -211 246 -311q178 -74 426 -74q41 0 71.5 22.5t34.5 22.5q41 0 93.5 -49t52.5 -90 q0 -72 -150 -71q-381 0 -618 124q-307 160 -307 508zM602 575q156 41 225 173h-41q-157 -95 -184 -173z" />
<glyph unicode="A" horiz-adv-x="1243" d="M115 59q0 20 67 121l86 129q236 375 572 1034q190 -76 190 -481q0 -45 -4 -133t-4 -133q0 -16 29.5 -52t29.5 -52q0 -12 -18 -41l-27 -41q-20 -51 -19 -194q0 -36 1 -77l4 -129q-29 -6 -53 -6q-84 0 -84 98q0 35 12 104.5t12 104.5q0 59 -43 60q-49 0 -243.5 -54.5 t-216.5 -76.5q-12 -12 -101 -156q-72 -117 -115 -117q-25 0 -50 33.5t-25 58.5zM530 465q125 23 375 82v362q0 33 -12 93.5t-14 84.5q-49 -100 -179 -309q-123 -196 -170 -313z" />
<glyph unicode="B" horiz-adv-x="1392" d="M106 141q0 12 126 199.5t126 224.5q0 16 -8 49t-8 50q0 16 2 32q82 29 131 111q12 18 74 162q-61 -6 -152 -92l-133 -132q-29 18 -28 54q0 59 81 162q61 76 132 135q150 125 286 174q131 45 332 45q33 0 100.5 -106.5t67.5 -147.5q0 -141 -279 -305q164 -55 209 -80 q117 -66 117 -172q0 -82 -80 -178q-291 -348 -770 -349q-117 0 -201 29q-125 43 -125 135zM305 201q199 -84 262 -84q143 0 340 114q217 127 217 258q0 125 -178 125q-218 0 -218 2h9q-137 -4 -194 -41q-25 -49 -129 -198q-99 -141 -109 -176zM643 1042q45 -66 45 -114 q0 -33 -14 -78l-25 -76q106 33 250 131q174 119 172 197q-37 0 -107.5 5t-107.5 5q-102 0 -213 -70z" />
<glyph unicode="C" horiz-adv-x="1206" d="M43 469q0 205 147 395q123 160 324 285q43 31 133 90q76 49 150 49q63 0 133.5 -69.5t70.5 -131.5q0 -70 -41.5 -125t-109.5 -55q-55 0 -105 43q8 33 48 80q47 57 57 74l-10 8q-203 0 -425 -253t-222 -460q0 -90 79.5 -173t169.5 -85l95 -2q23 -1 44 0q240 0 330 62 q37 25 54 90q12 49 49 49q27 0 71.5 -45t44.5 -72q0 -115 -251 -184q-186 -51 -351 -51q-195 0 -340 143t-145 338z" />
<glyph unicode="D" horiz-adv-x="1345" d="M53 1176q141 68 262 90q92 16 277 16q225 0 448 -186q233 -195 234 -414q0 -164 -184 -348q-143 -143 -330 -244q-209 -113 -352 -113h-111q-47 0 -90 93q-39 80 -39 135q0 82 111 309l157 317q-41 12 -41 54q0 70 146 237q-14 8 -31 8q-84 0 -220 -52t-151 -52 q-39 0 -63 57q-21 46 -23 93zM319 154q113 -12 158 -13q154 0 423 223.5t269 370.5q0 106 -151 230q-141 117 -254 129l-242 -461q-140 -270 -203 -479z" />
<glyph unicode="E" horiz-adv-x="1400" d="M-90 203q0 80 61 237q0 10 -6 33t-6 35q0 8 2 14q6 31 105 64q53 33 202 286q-20 74 -20 113q0 41 45 76l80 49q53 45 78 127h53q53 -57 86 -57q29 0 182 37q100 27 305 75q166 39 307 39q29 0 73 -41t44 -69q0 -25 -22.5 -45.5t-46.5 -20.5q-10 0 -14.5 6t-14.5 6 q-20 0 -68 -18q-53 -20 -71 -25q-84 -18 -349 -61q-211 -33 -342 -76q-74 -23 -131 -147q-70 -145 -110 -178q18 -6 37 -7q29 0 81 17.5t80 17.5q262 0 392 107q88 -72 88 -101q0 -66 -193 -121q-49 -14 -379 -83q-227 -49 -272 -84q-27 -20 -57 -107q-41 -109 -48 -121 q152 -31 160 -30q70 0 210 17t210 17q10 0 121 58l33 -52q-2 -12 4 -73q-137 -133 -531 -133q-358 0 -358 219z" />
<glyph unicode="F" horiz-adv-x="1290" d="M-82 463q0 47 49 69q23 10 96 19q57 6 64 16q12 18 18 82q4 55 9 88q16 98 96 178q14 14 160 129q16 16 49 53.5t45 37.5q8 0 18 -11.5t23 -11.5q10 0 26.5 11.5t26.5 11.5q100 0 290.5 71.5t291.5 71.5q84 0 130 -29.5t72 -107.5q-72 -76 -196 -76q-14 0 -41 12.5 t-41 12.5q-51 0 -273.5 -74t-277.5 -107q-31 -18 -80 -127l-67 -149q23 -12 59 -12q35 0 101.5 14t101.5 14q8 0 23.5 11.5t23.5 11.5q238 0 399 80l-4 -23q0 -10 8 -30.5t8 -30.5q0 -16 -16 -72q-106 -55 -279 -88q-215 -43 -415 -72q-74 -10 -119 -35q-6 -4 -119 -204 q-109 -193 -147 -193q-35 0 -61.5 34t-26.5 71q0 16 51 120l63 131q-18 -2 -34 -2q-105 1 -105 105z" />
<glyph unicode="G" horiz-adv-x="1681" d="M12 383q0 174 250 420q186 182 404 317q256 158 405 158q37 0 65.5 -25.5t28.5 -62.5q0 -47 -39 -84q-16 6 -34 6q-127 0 -394 -178q-211 -143 -350 -279q-195 -188 -194 -297q0 -115 127 -168q94 -41 227 -40q12 0 31.5 11t31.5 11q10 0 20.5 -11t20.5 -11q14 0 41 17 t41 17l13 -4l-2 -2l12 -6q6 0 80 31q47 10 139 41q49 27 94 82q53 61 53 108q0 78 -131 78q-39 0 -117.5 -7t-117.5 -7q-168 0 -168 110q0 43 29 84l256 17q66 0 195.5 -16.5t195.5 -16.5q45 0 135 5t135 5q147 0 147 -113q0 -84 -165 -84q-27 0 -77 4.5t-77 4.5 q-23 0 -102 -150q-74 -137 -88 -184q-4 -61 -31 -172q-23 -51 -66 -51q-49 0 -61 67q-6 37 -14 107q-33 -25 -68 -43.5t-195 -40.5q-145 -20 -209 -21q-35 0 -101 11.5t-101 11.5q-117 0 -199 121q-76 108 -76 229z" />
<glyph unicode="H" horiz-adv-x="1019" d="M4 55q0 14 48 103.5t55.5 116t17.5 184.5q27 14 76 59q27 33 57 111l47 121q86 203 324 534q25 -10 68.5 -41t43.5 -47q0 -43 -147 -291q-166 -279 -180 -317q18 -10 45 -10q82 0 246 81q49 176 108 330q100 260 164 260q27 0 48.5 -32.5t21.5 -61.5q0 -55 -82 -225 t-82 -228q0 -18 23.5 -58t23.5 -58t-47 -66q-57 -57 -64 -65q-18 -31 -35 -156q-16 -137 -36 -190q-35 -94 -105 -95q-35 0 -73 38t-38 73q0 31 29 31q51 0 74 123l24 163l-16 11q-33 -2 -115 -45q-12 -6 -108 -21q-74 -10 -123 -88q-14 -25 -68 -145q-49 -113 -77 -201 q-27 -20 -56 -21q-41 0 -67 43q-25 37 -25 80z" />
<glyph unicode="I" horiz-adv-x="1337" d="M-88 47v51q14 27 41 27q63 0 246 31q190 33 231 55q33 18 47 59l25 74q76 180 323 676l-10 8q-53 0 -187 -67.5t-198 -67.5q-86 0 -86 117q0 33 101.5 89t140.5 56q8 0 14 -5t14 -5t79 31.5t114 31.5q16 0 35 -4l32 29q80 10 197 31q14 2 137 45q100 35 125 34 q25 0 63 -44t38 -68q0 -92 -447 -156q0 -14 2 -39.5t2 -40.5q0 -57 -163.5 -359t-165.5 -386l18 -19q45 14 182 15q12 0 209 -29q0 -76 -160 -119q-115 -31 -221 -30q-8 0 -23.5 6t-23.5 6q-20 0 -81.5 -33t-82.5 -33q-27 0 -82 3t-82 3q-53 0 -154.5 -29.5t-154.5 -29.5 q-37 0 -94 86z" />
<glyph unicode="J" horiz-adv-x="1476" d="M-98 313q0 27 10 45q29 12 39 13q35 0 143.5 -42t138.5 -67q-2 -29 -20 -59q100 -66 131 -80q68 -33 152 -33q309 0 389 488q16 100 63 215l86 208l-18 9q-35 -2 -102.5 -31t-102.5 -29q-59 0 -82 49q-4 16 -22 101q82 45 390 124t404 79q23 0 52.5 -44.5t29.5 -68.5 q0 -49 -164 -88q-43 -10 -211 -43q-4 -84 -71 -250q-84 -205 -97 -258q-66 -274 -129 -389q-115 -211 -317 -211q-10 0 -27.5 5t-25.5 5l-11 -4l5 -12l-11 -6q-96 0 -286 81q-178 76 -267 144q-69 53 -69 149z" />
<glyph unicode="K" horiz-adv-x="1327" d="M-63 150q0 18 139 233l168 260q-12 8 -23 8q-23 0 -63.5 -18.5t-61.5 -18.5q-31 0 -71.5 46.5t-40.5 76.5q0 31 94 64l192 65q119 49 164 117q92 137 96 217q37 25 58 74q100 -16 100 -109q0 -23 -6 -69.5t-6 -69.5q6 2 346 199q289 166 303 166q20 0 39.5 -36t19.5 -59 q0 -59 -139 -141l-192 -108q-182 -125 -469 -238q211 -98 374 -299q180 -223 181 -436q0 -47 -19 -99q-23 -68 -59 -67q-63 0 -64 108q0 25 7.5 76t7.5 76q0 141 -176 310q-170 163 -308 163h-10l-43 -2l-219 -344q-180 -281 -219 -281q-33 0 -66.5 50.5t-33.5 85.5z" />
<glyph unicode="L" horiz-adv-x="1034" d="M49 111q0 55 111 229q129 203 145 242q51 121 119 355t125 349q23 47 39 47q23 0 61.5 -56t38.5 -81q0 -20 -29 -82q-41 -90 -174 -489q-80 -242 -176 -387q39 -4 88 -5q41 0 123 4.5t123 4.5q352 0 352 -113q0 -18 -37 -49q-47 -12 -182 -12q-279 0 -483 -43 q-14 -4 -70 -25q-45 -18 -67 -18q-43 0 -75 42t-32 87z" />
<glyph unicode="M" horiz-adv-x="1540" d="M55 102q0 59 109 265q170 322 205 397q111 242 110 381q0 72 39 104q61 -47 84 -47q10 0 28.5 18.5t31.5 18.5q55 0 92 -72q31 -61 30 -123q0 -63 -29.5 -187t-29.5 -187l-2 -144l20 -6q27 0 136 90q100 84 131 119q72 80 179 259t171 255q39 0 63 -49q20 -41 21 -86 q0 -68 -27 -172q-35 -139 -41 -170q-39 -227 -65 -530q-2 -55 -13 -166q-14 -121 -73 -121q-35 0 -61.5 41t-26.5 78q0 111 42 325.5t42 325.5v20q-20 -4 -99 -116q-96 -141 -161 -205q-111 -109 -211 -109q-113 0 -154 172q-6 25 -31 262l-209 -428q-170 -348 -202 -348 q-39 0 -69 47t-30 88z" />
<glyph unicode="N" horiz-adv-x="1265" d="M-74 51q-2 143 107 381q160 350 168 377l69 221q59 178 99 178q86 0 125 -223q12 -98 41 -295q33 -219 129 -414q238 649 557 1258h122l13 -55q-162 -272 -348 -734q-197 -485 -248 -768q-23 -27 -60 -26q-82 0 -200 366q-74 225 -127 461q-59 -184 -162 -428 q-145 -346 -199 -346q-39 0 -86 47z" />
<glyph unicode="O" horiz-adv-x="1361" d="M78 401q0 76 33 199q25 25 51 78q33 66 43 82q197 295 538 442q10 4 43 33q27 23 48 22q6 0 13 -5t15 -5q18 0 49 17.5t50 17.5q14 0 18 -25q12 14 8 35l166 -51l72 -82q53 -63 53 -82v-342q0 -229 -186 -422q-158 -164 -398 -256q-31 -12 -186 -82q-4 -4 -4 -14 q0 -14 6 -39h-33q-23 -2 -31 -2q-51 0 -161 90q-104 84 -133 137q-74 137 -74 254zM264 449q0 -293 113 -293q70 0 321 82l11 -2q6 4 4 6q57 23 174 109.5t151 135.5q123 172 123 449q0 59 -24 119q-31 74 -82 73q-96 0 -383 -155q-115 -63 -207 -185q-41 -53 -152 -235 q-49 -79 -49 -104z" />
<glyph unicode="P" horiz-adv-x="1052" d="M-59 90q0 23 80.5 161t80.5 161q0 14 -22.5 58t-22.5 62q0 61 33 62q8 0 26.5 -4t26.5 -4q63 0 162 182q131 244 213 336q162 182 381 182q98 0 166 -96q61 -86 61 -189q0 -221 -219 -385q-166 -121 -424 -190q-66 -8 -186 -43q-8 -2 -117.5 -214t-134.5 -212 q-33 0 -68.5 49t-35.5 84zM418 612l28 -14q260 106 353 168q190 129 211 309q-74 43 -144 43q-178 0 -342 -301z" />
<glyph unicode="Q" horiz-adv-x="1597" d="M115 387q0 143 63 262q20 37 154 223q57 80 217 209q182 147 244 148q27 0 76 -23.5t75 -23.5q8 0 23.5 6t23.5 6l15 -4l-2 -2l12 -6q8 0 23.5 6t23.5 6q14 0 14 -4v-2q0 -6 15 -6q10 0 29.5 7t29.5 7q49 0 115 -43q59 -39 92 -84q37 -53 74 -248q33 -176 32 -264 q0 -330 -313 -528v-15q0 -39 24.5 -110.5t24.5 -110.5q0 -31 -16 -59h-31q-33 0 -84 106l-70 140q-254 -70 -331 -70q-205 0 -373 133q-180 143 -180 344zM283 244q74 -78 137 -94q-49 43 -137 137v-43zM362 465q0 -111 99 -209l186 -154v-24q57 0 158 14q127 18 156 21 q-8 53 -62 206q-47 137 -47 197q0 31 37 31q72 0 139 -162q51 -119 68 -227q125 66 196 241q63 152 64 314q0 139 -53 229q-63 111 -193 111q-96 0 -121 -17l-23 -27q-13 -15 -26 -16q-8 0 -21.5 6.5t-21.5 6.5q-139 0 -337 -200t-198 -341z" />
<glyph unicode="R" horiz-adv-x="1183" d="M20 104q0 51 170 424q160 350 216 441q-16 18 -70 30v50q0 63 92 128.5t160 65.5q14 0 40.5 -6t41.5 -6q18 0 49 18.5t49 18.5q14 0 42 -18.5t40 -18.5q8 0 21.5 6t19.5 6q88 0 163.5 -69.5t75.5 -157.5q0 -104 -120 -185q-82 -53 -242 -106q-180 -61 -246 -96l269 -324 q188 -233 188 -334q0 -66 -47 -65q-47 0 -107 102q-31 51 -51 78l-158 160q-45 45 -116.5 144t-110.5 142q-88 -174 -172 -382l-61 -154q-27 -33 -56 -33q-35 0 -59 55q-21 45 -21 86zM512 823q115 0 258 66q160 72 197 164q-92 23 -183 22q-78 0 -213 -22q2 -14 2 -33 q0 -117 -61 -197z" />
<glyph unicode="S" horiz-adv-x="1196" d="M88 899q0 135 193 236q170 88 337 88q25 0 48 -4h-9l11 -2q16 0 44.5 13t43.5 13q70 0 145.5 -56.5t75.5 -123.5q0 -20 -11.5 -57t-13.5 -54q-23 -6 -41 -6q-27 0 -44 60.5t-76 60.5q-123 0 -267 -43q-154 -45 -239 -115q39 -35 141 -94q25 -14 178 -90q88 -43 182 -119 q174 -139 209 -182q20 -27 48 -92.5t28 -95.5v-11q-18 -2 -20 -18l12 -37q-23 -96 -178 -145q-111 -35 -246 -35q-154 0 -285 49q-172 66 -172 194q0 18 11.5 49t13.5 44q37 14 51 14q57 0 133 -49q75 -47 75 -95q0 -6 -1 -12q27 -29 96 -32h109q76 0 121 22q37 18 94 78 q-51 121 -314 244l-383 174q-29 14 -64.5 102t-35.5 127z" />
<glyph unicode="T" horiz-adv-x="1001" d="M-61 920q0 115 88 165q33 18 196 64q193 53 269 53q8 0 31.5 13.5t29.5 15.5q55 16 184 16h162q51 0 112.5 -52t61.5 -101q0 -57 -41 -58q-37 0 -107.5 5.5t-107.5 5.5q-20 0 -178 -15q-61 -188 -150 -409q-31 -74 -112 -295q-68 -188 -121 -293q-20 -41 -33 -41 q-41 0 -67 45q-20 39 -21 84q0 59 330 883l-19 4q-41 0 -172 -33q-137 -33 -163 -51q-10 -6 -43 -42t-48 -36q-25 0 -53 23.5t-28 48.5z" />
<glyph unicode="U" horiz-adv-x="1124" d="M37 410q0 137 96 391q88 233 176 368q96 -111 97 -151q0 -45 -97.5 -272.5t-97.5 -335.5q0 -113 71.5 -172.5t186.5 -59.5q109 0 197 47q109 57 198 377q78 274 78 445q0 31 -9 89t-9 89q0 109 69 108q49 0 92 -104q37 -88 37 -146q-4 -10 -16 -59l-82 -377 q-141 -625 -430 -624q-33 0 -99.5 -5.5t-99.5 -5.5q-141 0 -249.5 127.5t-108.5 270.5z" />
<glyph unicode="V" horiz-adv-x="880" d="M-45 1108q0 12 14 51h39q96 0 135 -287l29 -286q18 -162 61 -279l297 529l164 282l58 137q45 100 86 101q33 0 69.5 -50.5t36.5 -84.5q0 -29 -604 -1145q-59 -109 -102 -109q-84 0 -189 508q-94 455 -94 633z" />
<glyph unicode="W" horiz-adv-x="1603" d="M98 256q0 147 62 436q57 268 114 432q23 63 64 64q35 0 79 -39t44 -74q0 -133 -99.5 -400t-99.5 -403q139 70 270 265q35 53 193 335q45 -16 115 -59v-39q0 -76 -61.5 -213t-61.5 -213q0 -23 4 -45q57 -57 145 -57q16 0 48 2t49 2q29 0 142.5 72.5t135.5 101.5 q51 66 51 205q0 100 -22 243q-29 184 -78 203q-4 2 -49 15q-39 57 -39 90q0 27 20.5 64.5t44.5 39.5l11 -6l-9 -10l11 -6l8 6l-6 10l10 6q102 0 186 -272q72 -229 72 -369q0 -172 -51 -293q-41 -96 -210 -198.5t-276 -102.5q-119 0 -215 62q-104 66 -131 174 q-20 -4 -150 -149.5t-179 -145.5q-78 0 -115 100q-27 70 -27 166z" />
<glyph unicode="X" horiz-adv-x="1257" d="M109 123q0 68 120 205q92 102 183 176q-94 135 -162 317q-76 201 -76 346q0 115 53 176q57 -31 101 -217q23 -109 73 -323q43 -170 111 -176q104 66 492 516q90 -23 90 -129q0 -76 -223.5 -300.5t-223.5 -240.5q0 -18 232.5 -225t232.5 -252l-49 -105h-8q-32 0 -58 15 l-141 157q-45 47 -165 147.5t-167 145.5q-291 -328 -340 -327q-75 0 -75 94z" />
<glyph unicode="Y" horiz-adv-x="1128" d="M-66 956q0 92 27 273l25 39h39q68 -59 67 -144q0 -29 -8 -86t-8 -86q0 -195 194 -278q90 -39 363 -80l231 434q193 328 297 328q20 0 33.5 -30t13.5 -52q0 -14 -104 -180l-127 -205q-127 -252 -385 -842q-49 -111 -88 -110q-90 0 -90 83q0 80 65 207q72 137 82 203 q-4 2 -8 2q-8 0 -21 -6q-260 0 -421 133q-177 143 -177 397z" />
<glyph unicode="Z" horiz-adv-x="1236" d="M88 1087q0 37 25 76l387 125q256 82 383 82q66 0 108 -74q37 -61 37 -133q0 -80 -217 -454q-201 -346 -289 -451q346 27 459 27q158 0 154 -138l-2 -67l-19 14q-70 6 -143 6q-145 0 -264 -20q-55 -10 -183 -45q-117 -33 -184 -33q-51 0 -87 36t-36 87q0 92 152 293 l221 278q53 70 131 230q90 186 119 237l-19 8q-119 0 -348 -101t-291 -101q-39 0 -66.5 38.5t-27.5 79.5z" />
<glyph unicode="[" horiz-adv-x="673" d="M12 1268q264 59 461 59q55 0 104.5 -32.5t49.5 -86.5q0 -59 -121 -59q-23 0 -69 3t-68 3q-78 0 -217 -37q35 -344 81 -1032q31 0 90.5 7t90.5 7q27 0 54.5 -36.5t27.5 -65.5q0 -47 -138 -74q-94 -18 -188 -22q-78 66 -78 221q0 27 3 82t3 82q0 342 -20 536q-4 47 -39 221 q-27 138 -27 224z" />
<glyph unicode="\" horiz-adv-x="956" d="M45 1018q0 49 29 78q41 -18 94 -97l289 -411q119 -164 241 -264l95 -76q51 -45 81 -86q35 -47 54 -135q-119 4 -338 206q-162 150 -328 367q-217 281 -217 418z" />
<glyph unicode="]" horiz-adv-x="739" d="M70 1229l39 33q61 4 128.5 8t122.5 4q356 0 357 -184q0 -104 -51.5 -353.5t-51.5 -390.5q0 -76 10.5 -226.5t10.5 -225.5q0 -74 -111 -93q-37 -6 -168 -6q-252 0 -252 101q0 47 179 65q74 6 223 16l2 33q4 49 -11.5 144.5t-15.5 138.5q0 324 27 475q4 23 41 156 q27 96 26 157q-31 18 -110 19q-53 0 -156.5 -11.5t-156.5 -11.5q-68 0 -82 152z" />
<glyph unicode="^" horiz-adv-x="1019" d="M141 463q0 74 236 375q16 23 309 376q29 -10 90 -24q0 -27 11.5 -79t11.5 -79q0 -59 -16.5 -176t-16.5 -176q0 -127 18 -191l25 -61q14 -37 14 -66q0 -72 -43 -71q-51 0 -102 176q-25 82 -29 174q2 -25 2 174q0 23 -2 111l-18 20q-16 -45 -119 -184l-158 -221 q-131 -184 -147 -185q-23 0 -44.5 41t-21.5 66z" />
<glyph unicode="_" horiz-adv-x="1255" d="M47 -113q0 49 29 68q45 29 407 41l463 14q27 2 84 17.5t88 15.5q27 0 61.5 -40t34.5 -66q0 -45 -73 -68q-51 -16 -111 -16q-80 0 -238.5 -10.5t-238.5 -10.5q-197 0 -309 -20q-14 -2 -62 -19q-39 -12 -63 -12q-72 0 -72 106z" />
<glyph unicode="`" horiz-adv-x="434" d="M-25 1849l5 9q37 0 142 -27t122 -45q4 -31 112.5 -175.5t108.5 -176.5q0 -31 -62 -31q-55 0 -162.5 97t-107.5 151q0 14 -78 100t-80 98z" />
<glyph unicode="a" horiz-adv-x="1124" d="M84 168q0 195 189.5 400.5t381.5 205.5q70 0 133 -88q59 -80 60 -154q0 -18 -141 -333q33 -18 100 -19q33 0 97.5 20.5t96.5 20.5q35 0 72 -88q-2 -66 -129 -104q-94 -29 -184 -29q-109 0 -158 94q-16 33 -33 35q-51 -33 -170 -78q-125 -49 -174 -49q-63 0 -104 53 q-37 47 -37 113zM223 182q37 -8 72 -8q172 0 321 225l111 170q-66 39 -119 39q-82 0 -225 -172q-135 -162 -160 -254z" />
<glyph unicode="b" horiz-adv-x="944" d="M84 -4q0 98 180 614t246 619q78 -41 78 -88q0 -25 -78 -258q-72 -215 -98 -281v-31q47 2 137 46.5t141 44.5q63 0 109 -91q39 -76 39 -145q0 -174 -141.5 -299t-317.5 -125q-49 0 -83 32t-34 81q0 10 2 22q-29 -72 -47 -112q-39 -88 -63 -88q-20 0 -45 19.5t-25 39.5z M319 236q20 -4 54.5 -41t58.5 -37q76 0 181.5 76.5t105.5 148.5q0 37 -17 72q-20 43 -53 43q-70 0 -186 -101q-103 -87 -144 -161z" />
<glyph unicode="c" horiz-adv-x="735" d="M119 281q0 133 57 233q33 57 148 188q2 0 116 60q76 39 119 39q137 0 137 -183q0 -25 -4 -49q-31 -18 -88 -59q-16 16 -16 39q0 20 12 69l-10 9q-82 0 -217 -138.5t-135 -220.5q0 -117 403 -116h14l2 -15q1 -7 1 -14q0 -64 -85 -103q-72 -33 -155 -32q-133 0 -216 80 t-83 213z" />
<glyph unicode="d" horiz-adv-x="1359" d="M135 182q0 141 135 328q143 199 279 199q104 0 153 -154q-20 -20 -40 -20q-10 0 -31 8t-31 8q-78 0 -206 -142.5t-128 -222.5v-51h43q168 82 250 160t176 242l76 125l123 274q82 180 153 246q66 -20 66 -101q0 -31 -130 -302t-130 -402q0 -197 53 -197q86 0 217 10 q14 -43 15 -84q0 -39 -64 -67q-53 -25 -98 -25q-184 0 -260 279q-86 -96 -205 -199q-162 -137 -232 -137q-82 0 -135 74q-49 67 -49 151z" />
<glyph unicode="e" horiz-adv-x="980" d="M113 291q0 207 223 368q205 150 420 150q47 0 75 -84q23 -66 23 -125q0 -135 -104 -217q-70 -53 -234 -107q-184 -59 -237 -90q59 -43 204 -43q35 0 100.5 23.5t100.5 23.5q20 0 48 -44t28 -66q0 -57 -109 -88q-80 -23 -155 -23q-162 0 -267 78q-116 86 -116 244z M291 334l256 108q141 76 190 189h-51q-86 0 -223 -109q-125 -100 -172 -188z" />
<glyph unicode="f" horiz-adv-x="1001" d="M-61 442q0 82 81 121q41 18 158 43q76 14 97.5 32.5t41.5 86.5q10 35 25 76q61 193 217 383q178 219 354 219q68 0 115 -68q43 -59 43 -131q0 -158 -24 -198q-29 -49 -170 -101q-18 20 -41 27l75 72q47 43 47 88q0 135 -22 135q-178 0 -432 -441q-10 -18 -24.5 -25 t-22.5 -20v-41q49 4 198 29q127 20 201 21q27 0 61.5 -45.5t34.5 -73.5l-2 -8q-10 -41 -102 -54l-125 -12q-174 -20 -336 -88q-6 -31 -22 -92q-2 -16 -3 -189q0 -240 -69 -239q-37 0 -55 26q-61 190 -62 256l51 -24q20 20 21 125v57q0 12 -2 33v22q-59 -10 -219 -96h-4 q-84 0 -84 94z" />
<glyph unicode="g" horiz-adv-x="786" d="M84 -260q0 78 94 149q88 68 170 68q12 0 51 -14v-41q-33 -45 -184 -166l-14 -53q100 -78 164 -78q102 0 180 79.5t78 184.5q0 86 -37 181t-94 153q-29 29 -119 88q-82 55 -105 88q-31 45 -30 133q0 135 127 211q106 63 251 63q31 0 77 -51t46 -82q0 -12 -6 -37.5 t-6 -37.5q-31 -6 -55 -7q-25 0 -48.5 20.5t-41.5 20.5q-35 0 -114 -36.5t-103 -63.5q205 -178 280 -322q86 -164 86 -417q0 -45 -31 -107q-43 -88 -47 -102q-160 -111 -247 -111q-322 0 -322 287z" />
<glyph unicode="h" horiz-adv-x="1118" d="M111 90q0 109 94 250q139 209 149 229l140 357q115 289 151 288q20 0 38.5 -37.5t18.5 -62.5q0 -68 -145 -426q33 2 107 21q68 18 106 18q113 0 174 -119q49 -94 49 -217q0 -76 -37 -223q-43 -176 -88 -176q-49 0 -49 88q0 59 29 176t29 176q0 49 -35 89t-84 40 q-150 0 -309 -194q-68 -84 -213 -328l-17 -12q-66 6 -74 10q-34 10 -34 53z" />
<glyph unicode="i" horiz-adv-x="407" d="M8 113q0 133 60 313l106 305q63 -10 64 -131q0 -109 -54.5 -313.5t-109.5 -290.5h-41q-25 43 -25 117zM242 969q0 35 25.5 101.5t51.5 72.5q72 -47 72 -142q0 -88 -61 -88q-37 0 -86 43z" />
<glyph unicode="j" horiz-adv-x="659" d="M-27 -420q0 111 193 524q37 80 72 193l59 197q4 33 17.5 100.5t54.5 67.5q43 0 80 -62q33 -53 32 -100q0 -63 -163.5 -496.5t-200.5 -464.5q-43 -37 -72 -37q-25 0 -48.5 26.5t-23.5 51.5zM506 1026q0 82 57 82q51 0 97.5 -52t46.5 -106q0 -76 -76 -76q-57 0 -91 47.5 t-34 104.5z" />
<glyph unicode="k" horiz-adv-x="960" d="M-49 70q0 8 82 108.5t82 134.5q0 27 -33 103q12 2 68 6q37 2 63 22q76 55 213 383q166 393 199 447q90 -84 90 -135q0 -33 -101.5 -287t-130.5 -299v-10l9 -17q27 14 241 154q201 129 213 129q18 0 50 -37t32 -57q0 -74 -233 -205q-33 -18 -312 -158l197 -137 q113 -86 113 -199q0 -31 -41 -53l-74 31l-2 67q-221 147 -397 181q-98 -137 -250 -314q-25 23 -51.5 68t-26.5 74z" />
<glyph unicode="l" horiz-adv-x="505" d="M-18 41q0 43 211 553q184 444 260 608q88 -72 88 -131q0 -66 -211 -557q-203 -473 -269 -580q-79 11 -79 107z" />
<glyph unicode="m" horiz-adv-x="1374" d="M137 131q0 33 117 319.5t147 331.5q55 -29 86 -82q152 78 170 78q47 0 140 -162l129 82q100 61 123 62q127 0 127 -283q0 -104 -25 -256q-29 -182 -72 -237q-90 63 -90 143q0 57 19.5 171t19.5 171q0 20 -4 63l-10 15q-45 -4 -187 -244l-176 -305q-25 2 -57 65 q-31 57 -31 89q0 51 27.5 217t44.5 206l-19 7q-53 0 -264 -402l-58 -112q-40 -76 -87 -76q-20 0 -43 14q-2 18 -14.5 59t-12.5 66z" />
<glyph unicode="n" horiz-adv-x="1073" d="M131 147q0 27 51 183q47 145 68 190q-12 20 -12 47l2 21q59 53 75 69q43 41 66 80q29 -10 96 -82q166 94 242 95q57 0 119 -101q57 -90 57 -153q0 -82 -47 -258q-53 -199 -103 -220q-59 82 -59 181q0 57 34 165.5t34 165.5q0 43 -47 43q-166 0 -453 -575q-16 -10 -33 -10 q-39 0 -65 63q-25 51 -25 96z" />
<glyph unicode="o" horiz-adv-x="899" d="M113 487q0 49 69.5 137.5t116.5 92.5q55 25 117 49q84 35 108 35q104 0 185 -103q72 -94 71 -202q0 -160 -173 -325t-333 -165q-161 0 -161 481zM258 186q145 0 268 90q135 100 136 240q0 98 -95 98q-57 0 -139 -43q-6 -12 -33.5 -31.5t-36.5 -29.5q-37 -54 -100 -324z " />
<glyph unicode="p" horiz-adv-x="1243" d="M121 -455l188 342q131 244 131 367q0 20 -4 39q25 -10 35 -10q12 0 33 94l24 117q72 295 295 294q143 0 248 -165q94 -150 94 -299q0 -299 -465 -299q-45 0 -139 47q-29 -49 -328 -647q-57 29 -57 81q0 8 4 17zM625 215q129 -14 123 -14q78 0 186 53q125 61 125 129 q0 86 -77 150.5t-163 64.5q-98 0 -157 -88q18 -61 18 -104q0 -35 -27.5 -94.5t-27.5 -96.5z" />
<glyph unicode="q" horiz-adv-x="915" d="M94 -621q0 90 56 181q37 59 120 151q94 104 127 148q76 106 164 245q-25 -2 -83 -14t-89 -12q-217 0 -217 258q0 113 180 258q172 143 289 143q45 0 116.5 -53t71.5 -94v-111q-31 -14 -41 -14t-54 54t-87 54q-76 0 -192 -98q-104 -90 -144 -170v-43q18 -25 56 -24 q68 0 194 71q113 63 174 121q20 -8 57 -58t37 -71q0 -66 -55 -125q-70 -76 -82 -106q-20 -55 -69 -107q-8 -8 -95 -88v-29q18 6 37 7q80 0 187.5 -102.5t107.5 -182.5q0 -125 -90 -209q-14 -4 -78 -68q-76 -76 -125 -112q-82 -59 -149 -60q-156 0 -205 33t-100 174 q-13 33 -19 53zM223 -651q0 -37 37 -62.5t76 -25.5q135 0 248 75q129 84 129 213q0 100 -56 136q-33 20 -110 26q-68 4 -82 31q-14 -57 -78 -119q-92 -90 -108 -112q-56 -74 -56 -162z" />
<glyph unicode="r" horiz-adv-x="712" d="M-29 37q0 111 21 309q23 223 28 309q23 6 39 7q23 0 72 -64q139 115 199 152q119 74 233 73q47 0 119 -37q82 -41 82 -81q0 -53 -64 -54q-12 0 -35.5 3t-35.5 3q-205 0 -367 -217q-150 -201 -153 -409q-29 -31 -56 -31q-12 0 -82 37z" />
<glyph unicode="s" horiz-adv-x="794" d="M109 545q0 113 127 192q113 70 231 70q172 0 172 -145q0 -29 -21.5 -59t-50.5 -30q-8 0 -35.5 30t-52.5 30q-86 0 -182 -66q51 -47 173 -102t171 -96q80 -68 80 -172q0 -115 -129 -193q-113 -68 -236 -67q-76 0 -198 86v149q37 0 107.5 -28.5t107.5 -28.5q53 0 145 30 q109 35 109 74q0 33 -127 113q-45 29 -160 44t-158 38q-73 39 -73 131z" />
<glyph unicode="t" horiz-adv-x="940" d="M20 377v115q145 80 277 104q49 4 61 6q37 6 54 23q49 49 129 260q111 299 137 354q82 178 153 178q41 0 41 -69v-15q0 -53 -45 -121l-71 -110q-57 -156 -168 -414q-2 -29 41 -29q14 0 45 6.5t45 6.5q121 0 129 -154q-29 -8 -180 -31q-121 -18 -166 -45q-35 -20 -62 -110 q-41 -135 -41 -164q0 -25 23.5 -71t23.5 -70q0 -18 -32.5 -42t-51.5 -24q-82 0 -81 242q0 131 22 176q-18 10 -41 10q-27 0 -80 -15.5t-80 -15.5q-41 1 -82 19z" />
<glyph unicode="u" horiz-adv-x="843" d="M49 233q0 401 29 498q6 18 36.5 41t37.5 33h53q29 -33 31 -86q0 9 -1 9t-2 -101q0 -53 4.5 -157.5t4.5 -158.5q0 -55 -9 -86q10 -8 29 -8h55q76 0 218 248q27 45 165 328q41 -25 78 -129q-2 -23 -28 -78l-39 -82q-55 -160 -164 -299q-139 -178 -268 -178q-86 0 -158 60 t-72 146z" />
<glyph unicode="v" horiz-adv-x="702" d="M49 653q0 76 41 111q66 -55 90 -156q8 -33 25 -188q12 -115 49 -176q236 432 399 624v-16q0 -16 11 -31q12 20 28 23v-76q0 -61 -110 -221q-57 -82 -129 -267.5t-127 -267.5q-27 -39 -54 -39q-84 0 -159 299q-64 248 -64 381z" />
<glyph unicode="w" horiz-adv-x="1345" d="M121 109q0 115 69 331l111 334h41q63 -61 64 -166q0 -66 -27 -166q-35 -131 -41 -161q68 57 147 172q104 150 133 182q68 -51 68 -143q0 -53 -22 -134q-31 -109 -35 -133q59 -53 153 -53q160 0 244 170q68 135 68 311q0 27 -15.5 77t-15.5 73q0 55 57 112q53 -49 64 -63 q27 -37 26 -84q0 -326 -28 -459q-27 -123 -148 -219t-246 -96h-69q-170 0 -227 250l-148 -150q-98 -100 -164 -100q-59 0 -59 115z" />
<glyph unicode="x" horiz-adv-x="860" d="M14 78q0 51 179 203q-119 186 -119 452q0 90 37 90q55 0 84 -178q33 -209 75 -254q428 520 480 520q31 0 56 -42t25 -74q0 -18 -198 -240l-240 -264l248 -199v-43h-98q-16 0 -58.5 34t-60.5 36l-10 -6l8 -11l-10 -6q-16 2 -55.5 36t-57.5 34l-85 -94q-85 -94 -128 -95 q-33 0 -52.5 33t-19.5 68z" />
<glyph unicode="y" horiz-adv-x="831" d="M59 412q0 90 23 188q33 141 90 141q20 0 48 -52t28 -77q0 -45 -29 -131t-29 -131q0 -125 177 -125l170 305q141 246 182 246q31 0 51.5 -27.5t20.5 -60.5q0 -20 -106.5 -201.5t-106.5 -201.5q0 -10 23.5 -18.5t23.5 -22.5q0 -16 -29 -41q-14 -10 -41 -33 q-66 -59 -113 -199q-27 -76 -61 -243q-33 -160 -62 -242q-23 -61 -77 -61q-57 0 -58 141q0 57 43 244q43 180 68 243q-139 53 -187.5 130t-48.5 229z" />
<glyph unicode="z" horiz-adv-x="993" d="M90 98q0 74 115 168l217 166q119 92 125 148q-182 -88 -246 -88q-117 0 -117 180q35 45 281 88q213 37 313 37q25 0 56.5 -46t31.5 -73q0 -43 -245 -240l-308 -243q27 -4 58 -5q45 0 136 12.5t136 12.5h152l-15 -55l-12 10q-23 -2 -76 -45q-61 -51 -79.5 -60.5 t-204 -50.5t-213.5 -41q-49 0 -77 37t-28 88z" />
<glyph unicode="{" horiz-adv-x="655" d="M37 143q0 68 98 152l152 123q-31 0 -92 22q-16 10 -74 133q106 47 250 119q-250 121 -250 297q0 115 137 203q123 78 244 78q47 0 106.5 -55.5t59.5 -100.5q0 10 -15 -45q-23 -8 -39 -8q-8 0 -33.5 26.5t-78.5 26.5q-68 0 -166 -55q-109 -61 -109 -123q0 -35 80 -74 q127 -63 150 -80q80 -57 80 -133q0 -33 -58 -74l-86 -51q4 -14 32 -64t28 -71q0 -53 -142.5 -156.5t-142.5 -148.5q0 -51 113 -80q78 -20 155 -20q45 0 117 71q70 -35 70 -123q0 -92 -269 -92q-115 0 -216 94t-101 209z" />
<glyph unicode="|" horiz-adv-x="411" d="M133 739v623q20 29 47 29q39 0 71 -42t32 -83q0 -154 -6.5 -459t-6.5 -459q0 -135 11 -225q4 -43 32 -176q23 -106 23 -178q0 -16 -4 -43q-8 -33 -8 -43q-25 -14 -35 -15q-55 0 -78 123q-78 413 -78 948z" />
<glyph unicode="}" horiz-adv-x="724" d="M102 1118q66 61 179 62q125 0 231 -68q121 -78 121 -197q0 -59 -83 -164.5t-142 -132.5q74 -41 81 -47q49 -35 50 -73q0 -31 -64 -62l-90 -41l164 -170q94 -100 94 -205q0 -100 -106 -167q-94 -61 -199 -62q-82 0 -100 25q-43 55 -52 59v78q8 2 133 2q55 0 121 37 q74 41 74 92q0 25 -86 104q-109 100 -160 174q-88 127 -94 275l195 145q117 94 135 191q-25 12 -90.5 32.5t-87.5 20.5q-29 0 -79 -23.5t-79 -23.5q-20 0 -43 59q-19 47 -23 80z" />
<glyph unicode="~" horiz-adv-x="1171" d="M106 438q0 57 146 140q137 78 201 77q14 0 131.5 -64.5t206.5 -64.5q106 0 206.5 51.5t157.5 137.5q63 -88 64 -113q0 -72 -154 -153q-139 -74 -221 -74h-99q-27 0 -144.5 58.5t-141.5 58.5q-111 0 -226 -113q-39 -39 -45 -39q-25 0 -53.5 36.5t-28.5 61.5z" />
<glyph unicode="&#xa1;" horiz-adv-x="733" d="M-39 -16q0 31 184 266l228 291l94 159q57 94 123 136h39q16 -14 16 -48q0 -98 -267 -507.5t-335 -409.5q-20 0 -51 45t-31 68zM598 1165q0 82 74 82q53 0 83.5 -45t30.5 -100q0 -10 -7 -31.5t-7 -32.5q-8 0 -24.5 -7t-26.5 -7q-25 0 -74 57t-49 84z" />
<glyph unicode="&#xa2;" horiz-adv-x="1204" d="M53 20q0 37 41 84q55 63 62 76q-102 131 -103 289q0 203 148 395q125 162 323 285l135 92q76 49 154 45l172 293q31 -18 31 -66q0 -184 -68 -303q63 -66 66 -123l-133 21l-539 -930q47 -31 98 -37q16 -2 107 -2q285 0 377 62q37 25 51 88q12 51 49 51q27 0 73 -45t46 -72 q0 -115 -254 -184q-186 -51 -350 -51q-137 0 -260 82q-18 -37 -58.5 -105.5t-85.5 -68.5q-27 0 -54.5 46.5t-27.5 77.5zM203 399q0 -47 26 -96l451 762q-164 -86 -313 -283q-164 -215 -164 -383z" />
<glyph unicode="&#xa6;" horiz-adv-x="1861" d="M-35 215q0 35 29 49q16 -2 35 -2q18 0 54 3t54 3q27 0 80 -23.5t80 -23.5q113 0 170 58q51 51 76 165l41 189l-9 65q-137 -143 -153 -143q-39 0 -72 57q-29 49 -28 93q0 47 137 143q156 109 178 141l186 96q145 76 166 76q14 0 41 -23.5t41 -23.5q39 0 110.5 30t110.5 30 q51 0 124 -53.5t73 -100.5q0 -86 -240 -373h19q98 0 141 62h88q18 -33 19 -68q0 -96 -107 -170q-96 -70 -197 -70q-137 0 -184 129q-20 -18 -80 -163q-55 -133 -74 -134h-34q-23 0 -50.5 52.5t-27.5 79.5q0 57 83 242.5t83 271.5q0 29 -13 45q-76 -41 -114 -70 q-12 -39 -76 -373q-49 -256 -109 -334q-90 -117 -319 -116q-117 0 -207 37q-125 51 -125 147zM1085 840q0 -23 19 -43q37 25 133 147v37h-59q-93 -45 -93 -141zM1536 483q0 12 12.5 41t14.5 41h73q39 0 75 -62.5t36 -105.5q0 -80 -98 -80q-37 0 -75 63.5t-38 102.5z M1608 858q0 111 47 262q70 225 76 256q139 -61 139 -166q0 -25 -49 -207t-64 -217q-29 -68 -69 -67q-80 0 -80 139z" />
<glyph unicode="&#xa8;" horiz-adv-x="679" d="M43 1536q0 49 46 86t97 37q59 0 60 -57q0 -31 -37 -69t-68 -38h-86q0 6 -6 19.5t-6 21.5zM506 1507q0 45 52 102.5t95 57.5q76 0 76 -47q0 -37 -44 -90t-81 -53h-84q-14 -1 -14 30z" />
<glyph unicode="&#xa9;" horiz-adv-x="1449" d="M92 502q0 268 212 477t480 209q203 0 377 -176t174 -379q0 -279 -231 -481q-221 -195 -504 -195q-219 0 -363.5 162t-144.5 383zM221 461q0 -59 84 -104.5t84 -59.5q-45 -41 -108 -59q86 -143 282 -144q238 0 443 174q211 182 211 418q0 141 -140 248q-129 100 -274 100 q-221 0 -401.5 -177t-180.5 -396zM481 573q0 96 71 177t165 81q113 0 108 -137q-23 -20 -80 -38.5t-79 -34.5q-41 -33 -54 -99l21 -2q14 0 43 8.5t43 8.5q70 0 69 -80q0 -49 -33.5 -79t-82.5 -30q-84 0 -137.5 69.5t-53.5 155.5z" />
<glyph unicode="&#xaa;" horiz-adv-x="1124" d="M84 168q0 195 189.5 400.5t381.5 205.5q70 0 133 -88q59 -80 60 -154q0 -18 -141 -333q33 -18 100 -19q33 0 97.5 20.5t96.5 20.5q35 0 72 -88q-2 -66 -129 -104q-94 -29 -184 -29q-109 0 -158 94q-16 33 -33 35q-51 -33 -170 -78q-125 -49 -174 -49q-63 0 -104 53 q-37 47 -37 113zM223 182q37 -8 72 -8q172 0 321 225l111 170q-66 39 -119 39q-82 0 -225 -172q-135 -162 -160 -254z" />
<glyph unicode="&#xad;" d="M111 461q0 16 2 28q55 39 241 78q168 35 260 35q184 0 201 -127q-53 -16 -149 -31q-162 -23 -322 -73q-123 -39 -158 -39q-39 0 -59 47q-16 37 -16 82z" />
<glyph unicode="&#xae;" horiz-adv-x="1826" d="M78 451q0 131 58.5 284.5t146.5 249.5q37 39 127 92l141 80q182 111 223 127q100 39 254 39q72 0 170 -16q113 -18 160 -50q29 -18 92 -102l8 6l-6 13l8 6q41 -4 131 -170q80 -147 95 -211q29 -131 28 -232q0 -43 -40 -188.5t-60 -173.5q-72 -94 -328 -182 q-236 -80 -379 -80q-387 0 -622 133q-70 39 -138.5 166t-68.5 209zM197 438q0 -184 249 -276q180 -66 408 -66q47 0 139 6.5t140 6.5q20 0 75.5 29.5t75.5 29.5q10 0 14.5 -6t16.5 -6q14 0 80 65q20 20 74.5 50t78 58.5t54 133t30.5 151.5q0 225 -137 392q-147 174 -369 174 q-231 0 -452 -136q-238 -141 -309 -350l-15 -12q-2 -41 23 -74l-19 -18q-35 29 -69 131q-88 -136 -88 -283zM489 403q0 20 150 275q-31 39 -31 78q0 80 111 131q92 43 182 43q84 0 137 -35q63 -41 64 -121q0 -102 -92 -170l-166 -115q14 -16 121 -47q90 -25 90 -63 q0 -25 -50.5 -47.5t-78.5 -22.5q-63 0 -138 37q-82 39 -104 92l-55 -86q-43 -68 -62 -67q-33 0 -57 45q-21 36 -21 73zM797 639q41 18 98 66q72 59 90 71h-65q-68 0 -89 -16q-12 -10 -15 -49t-19 -72z" />
<glyph unicode="&#xb2;" horiz-adv-x="1116" d="M18 295q0 106 95 151q59 29 186 43q121 12 139 29q45 37 45 277q0 84 -32 141q-41 72 -119 72q-72 0 -99 -35q-6 -6 -28 -62q-14 -33 -49 -32q-31 0 -60 73q-25 63 -24 103q0 47 102 92q86 37 145 37q121 0 213 -131q82 -119 82 -246q0 -205 -28 -293q164 -12 489 -49 q-23 -27 -74 -74q-45 -33 -219 -39q-188 -6 -239 -28l-117 -181q-115 -170 -229 -170q-82 0 -136 125q-43 103 -43 197zM158 217q0 -61 71 -61q27 0 57.5 52t30.5 81q0 43 -71 43q-27 0 -57.5 -43t-30.5 -72z" />
<glyph unicode="&#xb3;" horiz-adv-x="761" d="M33 115q0 100 123 100q14 0 42.5 -23.5t45.5 -23.5q59 0 171.5 105.5t112.5 164.5q0 55 -75 97q-63 35 -125 34q-27 0 -86.5 -7t-89.5 -5l-48 2q-12 55 -12 152q193 68 254 96q133 59 232 147q-8 27 -43 58q-33 0 -98.5 4t-98.5 4h-49q-25 -23 -58 -23q-43 0 -73.5 33 t-30.5 76q0 109 94 108q532 0 533 -215q0 -209 -201 -344q82 -133 82 -223q0 -156 -144.5 -305.5t-300.5 -149.5q-61 0 -109 39.5t-48 98.5z" />
<glyph unicode="&#xb4;" horiz-adv-x="432" d="M-25 1389q0 57 96.5 163.5t151.5 106.5q16 0 80 48t74 48l47 -6q0 -55 39 -115q0 -10 -105 -86q-29 -2 -175 -111.5t-179 -109.5q-29 1 -29 62z" />
<glyph unicode="&#xb8;" horiz-adv-x="436" d="M72 55h104v-121q150 -53 150 -186q0 -86 -86 -133q-70 -37 -162 -37v62q115 2 160 94q0 156 -166 155v166z" />
<glyph unicode="&#xb9;" horiz-adv-x="538" d="M-23 106q0 84 216 570q203 457 282 586q102 -47 103 -136q0 -35 -238 -565q-231 -514 -285 -614q-78 73 -78 159z" />
<glyph unicode="&#xba;" horiz-adv-x="899" d="M113 487q0 49 69.5 137.5t116.5 92.5q55 25 117 49q84 35 108 35q104 0 185 -103q72 -94 71 -202q0 -160 -173 -325t-333 -165q-161 0 -161 481zM258 186q145 0 268 90q135 100 136 240q0 98 -95 98q-57 0 -139 -43q-6 -12 -33.5 -31.5t-36.5 -29.5q-37 -54 -100 -324z " />
<glyph unicode="&#xbf;" horiz-adv-x="798" d="M31 119q0 117 92 203q61 57 201 122q156 74 204 109l-73 72q-20 25 -21 108q0 14 29 15q205 0 205 -230q0 -16 -2 -72q-53 -39 -203 -98t-209 -100q-104 -70 -104 -158q0 -59 112 -59q170 0 402 200q66 -2 65 -172v-14q-84 -70 -217 -133q-147 -70 -240 -70 q-106 0 -176 88q-65 80 -65 189zM268 1024q0 43 34 73.5t77 30.5q90 0 90 -129q0 -20 -7 -58t-7 -58q-8 0 -27.5 -7.5t-30.5 -7.5q-35 0 -82 59.5t-47 96.5z" />
<glyph unicode="&#xc0;" horiz-adv-x="1273" d="M166 59q0 20 67 121l86 129q236 375 572 1034q190 -76 190 -481q0 -45 -4 -133t-4 -133q0 -16 29.5 -52t29.5 -52q0 -12 -18 -41l-27 -41q-20 -51 -19 -194q0 -36 1 -77l4 -129q-29 -6 -53 -6q-84 0 -84 98q0 35 12 104.5t12 104.5q0 59 -43 60q-49 0 -243.5 -54.5 t-216.5 -76.5q-12 -12 -101 -156q-72 -117 -115 -117q-25 0 -50 33.5t-25 58.5zM581 465q125 23 375 82v362q0 33 -12 93.5t-14 84.5q-49 -100 -179 -309q-123 -196 -170 -313zM335 1849l5 9q37 0 142 -27t122 -45q4 -31 112.5 -175.5t108.5 -176.5q0 -31 -62 -31 q-55 0 -162.5 97t-107.5 151q0 14 -78 100t-80 98z" />
<glyph unicode="&#xc1;" horiz-adv-x="1273" d="M166 59q0 20 67 121l86 129q236 375 572 1034q190 -76 190 -481q0 -45 -4 -133t-4 -133q0 -16 29.5 -52t29.5 -52q0 -12 -18 -41l-27 -41q-20 -51 -19 -194q0 -36 1 -77l4 -129q-29 -6 -53 -6q-84 0 -84 98q0 35 12 104.5t12 104.5q0 59 -43 60q-49 0 -243.5 -54.5 t-216.5 -76.5q-12 -12 -101 -156q-72 -117 -115 -117q-25 0 -50 33.5t-25 58.5zM581 465q125 23 375 82v362q0 33 -12 93.5t-14 84.5q-49 -100 -179 -309q-123 -196 -170 -313zM475 1389q0 57 96.5 163.5t151.5 106.5q16 0 80 48t74 48l47 -6q0 -55 39 -115q0 -10 -105 -86 q-29 -2 -175 -111.5t-179 -109.5q-29 1 -29 62z" />
<glyph unicode="&#xc2;" horiz-adv-x="1273" d="M166 59q0 20 67 121l86 129q236 375 572 1034q190 -76 190 -481q0 -45 -4 -133t-4 -133q0 -16 29.5 -52t29.5 -52q0 -12 -18 -41l-27 -41q-20 -51 -19 -194q0 -36 1 -77l4 -129q-29 -6 -53 -6q-84 0 -84 98q0 35 12 104.5t12 104.5q0 59 -43 60q-49 0 -243.5 -54.5 t-216.5 -76.5q-12 -12 -101 -156q-72 -117 -115 -117q-25 0 -50 33.5t-25 58.5zM581 465q125 23 375 82v362q0 33 -12 93.5t-14 84.5q-49 -100 -179 -309q-123 -196 -170 -313zM365 1438q0 47 289 399q16 -6 47 -12q0 -14 6 -43t6 -43q0 -31 -8 -92.5t-8 -92.5t15 -89 t15 -81q0 -37 -22 -36q-59 0 -70 276l-2 59l-8 11q-12 -27 -64 -97l-161 -215q-12 0 -23.5 21t-11.5 35z" />
<glyph unicode="&#xc3;" horiz-adv-x="1198" d="M90 59q0 20 67 121l86 129q236 375 572 1034q190 -76 190 -481q0 -45 -4 -133t-4 -133q0 -16 29.5 -52t29.5 -52q0 -12 -18 -41l-27 -41q-20 -51 -19 -194q0 -36 1 -77l4 -129q-29 -6 -53 -6q-84 0 -84 98q0 35 12 104.5t12 104.5q0 59 -43 60q-49 0 -243.5 -54.5 t-216.5 -76.5q-12 -12 -101 -156q-72 -117 -115 -117q-25 0 -50 33.5t-25 58.5zM505 465q125 23 375 82v362q0 33 -12 93.5t-14 84.5q-49 -100 -179 -309q-123 -196 -170 -313zM221 1554q0 39 98 95q92 53 138 53q8 0 88 -44t141 -44q164 0 248 127q43 -57 43 -74 q0 -53 -103 -106q-92 -49 -151 -50h-68q-18 0 -97 40t-97 40q-45 0 -120 -52t-65 -52q-16 0 -35.5 25.5t-19.5 41.5z" />
<glyph unicode="&#xc4;" horiz-adv-x="1273" d="M166 59q0 20 67 121l86 129q236 375 572 1034q190 -76 190 -481q0 -45 -4 -133t-4 -133q0 -16 29.5 -52t29.5 -52q0 -12 -18 -41l-27 -41q-20 -51 -19 -194q0 -36 1 -77l4 -129q-29 -6 -53 -6q-84 0 -84 98q0 35 12 104.5t12 104.5q0 59 -43 60q-49 0 -243.5 -54.5 t-216.5 -76.5q-12 -12 -101 -156q-72 -117 -115 -117q-25 0 -50 33.5t-25 58.5zM581 465q125 23 375 82v362q0 33 -12 93.5t-14 84.5q-49 -100 -179 -309q-123 -196 -170 -313zM262 1536q0 49 46 86t97 37q59 0 60 -57q0 -31 -37 -69t-68 -38h-86q0 6 -6 19.5t-6 21.5z M725 1507q0 45 52 102.5t95 57.5q76 0 76 -47q0 -37 -44 -90t-81 -53h-84q-14 -1 -14 30z" />
<glyph unicode="&#xc5;" horiz-adv-x="1273" d="M166 59q0 20 67 121l86 129q236 375 572 1034q190 -76 190 -481q0 -45 -4 -133t-4 -133q0 -16 29.5 -52t29.5 -52q0 -12 -18 -41l-27 -41q-20 -51 -19 -194q0 -36 1 -77l4 -129q-29 -6 -53 -6q-84 0 -84 98q0 35 12 104.5t12 104.5q0 59 -43 60q-49 0 -243.5 -54.5 t-216.5 -76.5q-12 -12 -101 -156q-72 -117 -115 -117q-25 0 -50 33.5t-25 58.5zM581 465q125 23 375 82v362q0 33 -12 93.5t-14 84.5q-49 -100 -179 -309q-123 -196 -170 -313zM873 1323q0 -154 -166 -154q-176 0 -176 138q0 162 176 161q70 0 118 -38.5t48 -106.5z M803 1315q0 31 -8 65q-12 8 -25 23l-129 2q-47 -18 -47 -100q0 -53 50 -78h112l39 26q8 29 8 62z" />
<glyph unicode="&#xc6;" horiz-adv-x="2050" d="M-184 59q0 20 67 121l86 129q236 375 572 1034q190 -76 190 -481q0 -45 -4 -133t-4 -133q0 -16 29.5 -52t29.5 -52q0 -12 -18 -41l-27 -41q-20 -51 -19 -194q0 -36 1 -77l4 -129q-29 -6 -53 -6q-84 0 -84 98q0 35 12 104.5t12 104.5q0 59 -43 60q-49 0 -243.5 -54.5 t-216.5 -76.5q-12 -12 -101 -156q-72 -117 -115 -117q-25 0 -50 33.5t-25 58.5zM231 465q125 23 375 82v362q0 33 -12 93.5t-14 84.5q-49 -100 -179 -309q-123 -196 -170 -313zM604 203q0 80 61 237q0 10 -6 33t-6 35q0 8 2 14q6 31 105 64q53 33 202 286q-20 74 -20 113 q0 41 45 76l80 49q53 45 78 127h53q53 -57 86 -57q29 0 182 37q100 27 305 75q166 39 307 39q29 0 73 -41t44 -69q0 -25 -22.5 -45.5t-46.5 -20.5q-10 0 -14.5 6t-14.5 6q-20 0 -68 -18q-53 -20 -71 -25q-84 -18 -349 -61q-211 -33 -342 -76q-74 -23 -131 -147 q-70 -145 -110 -178q18 -6 37 -7q29 0 81 17.5t80 17.5q262 0 392 107q88 -72 88 -101q0 -66 -193 -121q-49 -14 -379 -83q-227 -49 -272 -84q-27 -20 -57 -107q-41 -109 -48 -121q152 -31 160 -30q70 0 210 17t210 17q10 0 121 58l33 -52q-2 -12 4 -73q-137 -133 -531 -133 q-358 0 -358 219z" />
<glyph unicode="&#xc7;" horiz-adv-x="1177" d="M23 469q0 205 147 395q123 160 324 285q43 31 133 90q76 49 150 49q63 0 133.5 -69.5t70.5 -131.5q0 -70 -41.5 -125t-109.5 -55q-55 0 -105 43q8 33 48 80q47 57 57 74l-10 8q-203 0 -425 -253t-222 -460q0 -90 79.5 -173t169.5 -85l95 -2q23 -1 44 0q240 0 330 62 q37 25 54 90q12 49 49 49q27 0 71.5 -45t44.5 -72q0 -115 -251 -184q-186 -51 -351 -51q-195 0 -340 143t-145 338zM432 55h104v-121q150 -53 150 -186q0 -86 -86 -133q-70 -37 -162 -37v62q115 2 160 94q0 156 -166 155v166z" />
<glyph unicode="&#xc8;" horiz-adv-x="1316" d="M-182 203q0 80 61 237q0 10 -6 33t-6 35q0 8 2 14q6 31 105 64q53 33 202 286q-20 74 -20 113q0 41 45 76l80 49q53 45 78 127h53q53 -57 86 -57q29 0 182 37q100 27 305 75q166 39 307 39q29 0 73 -41t44 -69q0 -25 -22.5 -45.5t-46.5 -20.5q-10 0 -14.5 6t-14.5 6 q-20 0 -68 -18q-53 -20 -71 -25q-84 -18 -349 -61q-211 -33 -342 -76q-74 -23 -131 -147q-70 -145 -110 -178q18 -6 37 -7q29 0 81 17.5t80 17.5q262 0 392 107q88 -72 88 -101q0 -66 -193 -121q-49 -14 -379 -83q-227 -49 -272 -84q-27 -20 -57 -107q-41 -109 -48 -121 q152 -31 160 -30q70 0 210 17t210 17q10 0 121 58l33 -52q-2 -12 4 -73q-137 -133 -531 -133q-358 0 -358 219zM196 1849l5 9q37 0 142 -27t122 -45q4 -31 112.5 -175.5t108.5 -176.5q0 -31 -62 -31q-55 0 -162.5 97t-107.5 151q0 14 -78 100t-80 98z" />
<glyph unicode="&#xc9;" horiz-adv-x="1316" d="M-182 203q0 80 61 237q0 10 -6 33t-6 35q0 8 2 14q6 31 105 64q53 33 202 286q-20 74 -20 113q0 41 45 76l80 49q53 45 78 127h53q53 -57 86 -57q29 0 182 37q100 27 305 75q166 39 307 39q29 0 73 -41t44 -69q0 -25 -22.5 -45.5t-46.5 -20.5q-10 0 -14.5 6t-14.5 6 q-20 0 -68 -18q-53 -20 -71 -25q-84 -18 -349 -61q-211 -33 -342 -76q-74 -23 -131 -147q-70 -145 -110 -178q18 -6 37 -7q29 0 81 17.5t80 17.5q262 0 392 107q88 -72 88 -101q0 -66 -193 -121q-49 -14 -379 -83q-227 -49 -272 -84q-27 -20 -57 -107q-41 -109 -48 -121 q152 -31 160 -30q70 0 210 17t210 17q10 0 121 58l33 -52q-2 -12 4 -73q-137 -133 -531 -133q-358 0 -358 219zM335 1389q0 57 96.5 163.5t151.5 106.5q16 0 80 48t74 48l47 -6q0 -55 39 -115q0 -10 -105 -86q-29 -2 -175 -111.5t-179 -109.5q-29 1 -29 62z" />
<glyph unicode="&#xca;" horiz-adv-x="1316" d="M-182 203q0 80 61 237q0 10 -6 33t-6 35q0 8 2 14q6 31 105 64q53 33 202 286q-20 74 -20 113q0 41 45 76l80 49q53 45 78 127h53q53 -57 86 -57q29 0 182 37q100 27 305 75q166 39 307 39q29 0 73 -41t44 -69q0 -25 -22.5 -45.5t-46.5 -20.5q-10 0 -14.5 6t-14.5 6 q-20 0 -68 -18q-53 -20 -71 -25q-84 -18 -349 -61q-211 -33 -342 -76q-74 -23 -131 -147q-70 -145 -110 -178q18 -6 37 -7q29 0 81 17.5t80 17.5q262 0 392 107q88 -72 88 -101q0 -66 -193 -121q-49 -14 -379 -83q-227 -49 -272 -84q-27 -20 -57 -107q-41 -109 -48 -121 q152 -31 160 -30q70 0 210 17t210 17q10 0 121 58l33 -52q-2 -12 4 -73q-137 -133 -531 -133q-358 0 -358 219zM226 1438q0 47 289 399q16 -6 47 -12q0 -14 6 -43t6 -43q0 -31 -8 -92.5t-8 -92.5t15 -89t15 -81q0 -37 -22 -36q-59 0 -70 276l-2 59l-8 11q-12 -27 -64 -97 l-161 -215q-12 0 -23.5 21t-11.5 35z" />
<glyph unicode="&#xcb;" horiz-adv-x="1316" d="M-182 203q0 80 61 237q0 10 -6 33t-6 35q0 8 2 14q6 31 105 64q53 33 202 286q-20 74 -20 113q0 41 45 76l80 49q53 45 78 127h53q53 -57 86 -57q29 0 182 37q100 27 305 75q166 39 307 39q29 0 73 -41t44 -69q0 -25 -22.5 -45.5t-46.5 -20.5q-10 0 -14.5 6t-14.5 6 q-20 0 -68 -18q-53 -20 -71 -25q-84 -18 -349 -61q-211 -33 -342 -76q-74 -23 -131 -147q-70 -145 -110 -178q18 -6 37 -7q29 0 81 17.5t80 17.5q262 0 392 107q88 -72 88 -101q0 -66 -193 -121q-49 -14 -379 -83q-227 -49 -272 -84q-27 -20 -57 -107q-41 -109 -48 -121 q152 -31 160 -30q70 0 210 17t210 17q10 0 121 58l33 -52q-2 -12 4 -73q-137 -133 -531 -133q-358 0 -358 219zM123 1536q0 49 46 86t97 37q59 0 60 -57q0 -31 -37 -69t-68 -38h-86q0 6 -6 19.5t-6 21.5zM586 1507q0 45 52 102.5t95 57.5q76 0 76 -47q0 -37 -44 -90t-81 -53 h-84q-14 -1 -14 30z" />
<glyph unicode="&#xcc;" horiz-adv-x="1165" d="M-272 47v51q14 27 41 27q63 0 246 31q190 33 231 55q33 18 47 59l25 74q76 180 323 676l-10 8q-53 0 -187 -67.5t-198 -67.5q-86 0 -86 117q0 33 101.5 89t140.5 56q8 0 14 -5t14 -5t79 31.5t114 31.5q16 0 35 -4l32 29q80 10 197 31q14 2 137 45q100 35 125 34 q25 0 63 -44t38 -68q0 -92 -447 -156q0 -14 2 -39.5t2 -40.5q0 -57 -163.5 -359t-165.5 -386l18 -19q45 14 182 15q12 0 209 -29q0 -76 -160 -119q-115 -31 -221 -30q-8 0 -23.5 6t-23.5 6q-20 0 -81.5 -33t-82.5 -33q-27 0 -82 3t-82 3q-53 0 -154.5 -29.5t-154.5 -29.5 q-37 0 -94 86zM272 1849l5 9q37 0 142 -27t122 -45q4 -31 112.5 -175.5t108.5 -176.5q0 -31 -62 -31q-55 0 -162.5 97t-107.5 151q0 14 -78 100t-80 98z" />
<glyph unicode="&#xcd;" horiz-adv-x="1148" d="M-291 47v51q14 27 41 27q63 0 246 31q190 33 231 55q33 18 47 59l25 74q76 180 323 676l-10 8q-53 0 -187 -67.5t-198 -67.5q-86 0 -86 117q0 33 101.5 89t140.5 56q8 0 14 -5t14 -5t79 31.5t114 31.5q16 0 35 -4l32 29q80 10 197 31q14 2 137 45q100 35 125 34 q25 0 63 -44t38 -68q0 -92 -447 -156q0 -14 2 -39.5t2 -40.5q0 -57 -163.5 -359t-165.5 -386l18 -19q45 14 182 15q12 0 209 -29q0 -76 -160 -119q-115 -31 -221 -30q-8 0 -23.5 6t-23.5 6q-20 0 -81.5 -33t-82.5 -33q-27 0 -82 3t-82 3q-53 0 -154.5 -29.5t-154.5 -29.5 q-37 0 -94 86zM413 1389q0 57 96.5 163.5t151.5 106.5q16 0 80 48t74 48l47 -6q0 -55 39 -115q0 -10 -105 -86q-29 -2 -175 -111.5t-179 -109.5q-29 1 -29 62z" />
<glyph unicode="&#xce;" horiz-adv-x="1181" d="M-254 47v51q14 27 41 27q63 0 246 31q190 33 231 55q33 18 47 59l25 74q76 180 323 676l-10 8q-53 0 -187 -67.5t-198 -67.5q-86 0 -86 117q0 33 101.5 89t140.5 56q8 0 14 -5t14 -5t79 31.5t114 31.5q16 0 35 -4l32 29q80 10 197 31q14 2 137 45q100 35 125 34 q25 0 63 -44t38 -68q0 -92 -447 -156q0 -14 2 -39.5t2 -40.5q0 -57 -163.5 -359t-165.5 -386l18 -19q45 14 182 15q12 0 209 -29q0 -76 -160 -119q-115 -31 -221 -30q-8 0 -23.5 6t-23.5 6q-20 0 -81.5 -33t-82.5 -33q-27 0 -82 3t-82 3q-53 0 -154.5 -29.5t-154.5 -29.5 q-37 0 -94 86zM402 1438q0 47 289 399q16 -6 47 -12q0 -14 6 -43t6 -43q0 -31 -8 -92.5t-8 -92.5t15 -89t15 -81q0 -37 -22 -36q-59 0 -70 276l-2 59l-8 11q-12 -27 -64 -97l-161 -215q-12 0 -23.5 21t-11.5 35z" />
<glyph unicode="&#xcf;" horiz-adv-x="1185" d="M-250 47v51q14 27 41 27q63 0 246 31q190 33 231 55q33 18 47 59l25 74q76 180 323 676l-10 8q-53 0 -187 -67.5t-198 -67.5q-86 0 -86 117q0 33 101.5 89t140.5 56q8 0 14 -5t14 -5t79 31.5t114 31.5q16 0 35 -4l32 29q80 10 197 31q14 2 137 45q100 35 125 34 q25 0 63 -44t38 -68q0 -92 -447 -156q0 -14 2 -39.5t2 -40.5q0 -57 -163.5 -359t-165.5 -386l18 -19q45 14 182 15q12 0 209 -29q0 -76 -160 -119q-115 -31 -221 -30q-8 0 -23.5 6t-23.5 6q-20 0 -81.5 -33t-82.5 -33q-27 0 -82 3t-82 3q-53 0 -154.5 -29.5t-154.5 -29.5 q-37 0 -94 86zM242 1536q0 49 46 86t97 37q59 0 60 -57q0 -31 -37 -69t-68 -38h-86q0 6 -6 19.5t-6 21.5zM705 1507q0 45 52 102.5t95 57.5q76 0 76 -47q0 -37 -44 -90t-81 -53h-84q-14 -1 -14 30z" />
<glyph unicode="&#xd1;" horiz-adv-x="1243" d="M-99 51q-2 143 107 381q160 350 168 377l69 221q59 178 99 178q86 0 125 -223q12 -98 41 -295q33 -219 129 -414q238 649 557 1258h122l13 -55q-162 -272 -348 -734q-197 -485 -248 -768q-23 -27 -60 -26q-82 0 -200 366q-74 225 -127 461q-59 -184 -162 -428 q-145 -346 -199 -346q-39 0 -86 47zM219 1554q0 39 98 95q92 53 138 53q8 0 88 -44t141 -44q164 0 248 127q43 -57 43 -74q0 -53 -103 -106q-92 -49 -151 -50h-68q-18 0 -97 40t-97 40q-45 0 -120 -52t-65 -52q-16 0 -35.5 25.5t-19.5 41.5z" />
<glyph unicode="&#xd2;" horiz-adv-x="1308" d="M23 401q0 76 33 199q25 25 51 78q33 66 43 82q197 295 538 442q10 4 43 33q27 23 48 22q6 0 13 -5t15 -5q18 0 49 17.5t50 17.5q14 0 18 -25q12 14 8 35l166 -51l72 -82q53 -63 53 -82v-342q0 -229 -186 -422q-158 -164 -398 -256q-31 -12 -186 -82q-4 -4 -4 -14 q0 -14 6 -39h-33q-23 -2 -31 -2q-51 0 -161 90q-104 84 -133 137q-74 137 -74 254zM209 449q0 -293 113 -293q70 0 321 82l11 -2q6 4 4 6q57 23 174 109.5t151 135.5q123 172 123 449q0 59 -24 119q-31 74 -82 73q-96 0 -383 -155q-115 -63 -207 -185q-41 -53 -152 -235 q-49 -79 -49 -104zM225 1849l5 9q37 0 142 -27t122 -45q4 -31 112.5 -175.5t108.5 -176.5q0 -31 -62 -31q-55 0 -162.5 97t-107.5 151q0 14 -78 100t-80 98z" />
<glyph unicode="&#xd3;" horiz-adv-x="1308" d="M23 401q0 76 33 199q25 25 51 78q33 66 43 82q197 295 538 442q10 4 43 33q27 23 48 22q6 0 13 -5t15 -5q18 0 49 17.5t50 17.5q14 0 18 -25q12 14 8 35l166 -51l72 -82q53 -63 53 -82v-342q0 -229 -186 -422q-158 -164 -398 -256q-31 -12 -186 -82q-4 -4 -4 -14 q0 -14 6 -39h-33q-23 -2 -31 -2q-51 0 -161 90q-104 84 -133 137q-74 137 -74 254zM209 449q0 -293 113 -293q70 0 321 82l11 -2q6 4 4 6q57 23 174 109.5t151 135.5q123 172 123 449q0 59 -24 119q-31 74 -82 73q-96 0 -383 -155q-115 -63 -207 -185q-41 -53 -152 -235 q-49 -79 -49 -104zM364 1389q0 57 96.5 163.5t151.5 106.5q16 0 80 48t74 48l47 -6q0 -55 39 -115q0 -10 -105 -86q-29 -2 -175 -111.5t-179 -109.5q-29 1 -29 62z" />
<glyph unicode="&#xd4;" horiz-adv-x="1308" d="M23 401q0 76 33 199q25 25 51 78q33 66 43 82q197 295 538 442q10 4 43 33q27 23 48 22q6 0 13 -5t15 -5q18 0 49 17.5t50 17.5q14 0 18 -25q12 14 8 35l166 -51l72 -82q53 -63 53 -82v-342q0 -229 -186 -422q-158 -164 -398 -256q-31 -12 -186 -82q-4 -4 -4 -14 q0 -14 6 -39h-33q-23 -2 -31 -2q-51 0 -161 90q-104 84 -133 137q-74 137 -74 254zM209 449q0 -293 113 -293q70 0 321 82l11 -2q6 4 4 6q57 23 174 109.5t151 135.5q123 172 123 449q0 59 -24 119q-31 74 -82 73q-96 0 -383 -155q-115 -63 -207 -185q-41 -53 -152 -235 q-49 -79 -49 -104zM254 1438q0 47 289 399q16 -6 47 -12q0 -14 6 -43t6 -43q0 -31 -8 -92.5t-8 -92.5t15 -89t15 -81q0 -37 -22 -36q-59 0 -70 276l-2 59l-8 11q-12 -27 -64 -97l-161 -215q-12 0 -23.5 21t-11.5 35z" />
<glyph unicode="&#xd5;" horiz-adv-x="1308" d="M23 401q0 76 33 199q25 25 51 78q33 66 43 82q197 295 538 442q10 4 43 33q27 23 48 22q6 0 13 -5t15 -5q18 0 49 17.5t50 17.5q14 0 18 -25q12 14 8 35l166 -51l72 -82q53 -63 53 -82v-342q0 -229 -186 -422q-158 -164 -398 -256q-31 -12 -186 -82q-4 -4 -4 -14 q0 -14 6 -39h-33q-23 -2 -31 -2q-51 0 -161 90q-104 84 -133 137q-74 137 -74 254zM209 449q0 -293 113 -293q70 0 321 82l11 -2q6 4 4 6q57 23 174 109.5t151 135.5q123 172 123 449q0 59 -24 119q-31 74 -82 73q-96 0 -383 -155q-115 -63 -207 -185q-41 -53 -152 -235 q-49 -79 -49 -104zM186 1554q0 39 98 95q92 53 138 53q8 0 88 -44t141 -44q164 0 248 127q43 -57 43 -74q0 -53 -103 -106q-92 -49 -151 -50h-68q-18 0 -97 40t-97 40q-45 0 -120 -52t-65 -52q-16 0 -35.5 25.5t-19.5 41.5z" />
<glyph unicode="&#xd6;" horiz-adv-x="1306" d="M21 401q0 76 33 199q25 25 51 78q33 66 43 82q197 295 538 442q10 4 43 33q27 23 48 22q6 0 13 -5t15 -5q18 0 49 17.5t50 17.5q14 0 18 -25q12 14 8 35l166 -51l72 -82q53 -63 53 -82v-342q0 -229 -186 -422q-158 -164 -398 -256q-31 -12 -186 -82q-4 -4 -4 -14 q0 -14 6 -39h-33q-23 -2 -31 -2q-51 0 -161 90q-104 84 -133 137q-74 137 -74 254zM207 449q0 -293 113 -293q70 0 321 82l11 -2q6 4 4 6q57 23 174 109.5t151 135.5q123 172 123 449q0 59 -24 119q-31 74 -82 73q-96 0 -383 -155q-115 -63 -207 -185q-41 -53 -152 -235 q-49 -79 -49 -104zM149 1536q0 49 46 86t97 37q59 0 60 -57q0 -31 -37 -69t-68 -38h-86q0 6 -6 19.5t-6 21.5zM612 1507q0 45 52 102.5t95 57.5q76 0 76 -47q0 -37 -44 -90t-81 -53h-84q-14 -1 -14 30z" />
<glyph unicode="&#xd9;" horiz-adv-x="1167" d="M49 410q0 137 96 391q88 233 176 368q96 -111 97 -151q0 -45 -97.5 -272.5t-97.5 -335.5q0 -113 71.5 -172.5t186.5 -59.5q109 0 197 47q109 57 198 377q78 274 78 445q0 31 -9 89t-9 89q0 109 69 108q49 0 92 -104q37 -88 37 -146q-4 -10 -16 -59l-82 -377 q-141 -625 -430 -624q-33 0 -99.5 -5.5t-99.5 -5.5q-141 0 -249.5 127.5t-108.5 270.5zM297 1849l5 9q37 0 142 -27t122 -45q4 -31 112.5 -175.5t108.5 -176.5q0 -31 -62 -31q-55 0 -162.5 97t-107.5 151q0 14 -78 100t-80 98z" />
<glyph unicode="&#xda;" horiz-adv-x="1169" d="M49 410q0 137 96 391q88 233 176 368q96 -111 97 -151q0 -45 -97.5 -272.5t-97.5 -335.5q0 -113 71.5 -172.5t186.5 -59.5q109 0 197 47q109 57 198 377q78 274 78 445q0 31 -9 89t-9 89q0 109 69 108q49 0 92 -104q37 -88 37 -146q-4 -10 -16 -59l-82 -377 q-141 -625 -430 -624q-33 0 -99.5 -5.5t-99.5 -5.5q-141 0 -249.5 127.5t-108.5 270.5zM436 1389q0 57 96.5 163.5t151.5 106.5q16 0 80 48t74 48l47 -6q0 -55 39 -115q0 -10 -105 -86q-29 -2 -175 -111.5t-179 -109.5q-29 1 -29 62z" />
<glyph unicode="&#xdb;" horiz-adv-x="1171" d="M51 410q0 137 96 391q88 233 176 368q96 -111 97 -151q0 -45 -97.5 -272.5t-97.5 -335.5q0 -113 71.5 -172.5t186.5 -59.5q109 0 197 47q109 57 198 377q78 274 78 445q0 31 -9 89t-9 89q0 109 69 108q49 0 92 -104q37 -88 37 -146q-4 -10 -16 -59l-82 -377 q-141 -625 -430 -624q-33 0 -99.5 -5.5t-99.5 -5.5q-141 0 -249.5 127.5t-108.5 270.5zM328 1438q0 47 289 399q16 -6 47 -12q0 -14 6 -43t6 -43q0 -31 -8 -92.5t-8 -92.5t15 -89t15 -81q0 -37 -22 -36q-59 0 -70 276l-2 59l-8 11q-12 -27 -64 -97l-161 -215q-12 0 -23.5 21 t-11.5 35z" />
<glyph unicode="&#xdc;" horiz-adv-x="1093" d="M49 410q0 137 96 391q88 233 176 368q96 -111 97 -151q0 -45 -97.5 -272.5t-97.5 -335.5q0 -113 71.5 -172.5t186.5 -59.5q109 0 197 47q109 57 198 377q78 274 78 445q0 31 -9 89t-9 89q0 109 69 108q49 0 92 -104q37 -88 37 -146q-4 -10 -16 -59l-82 -377 q-141 -625 -430 -624q-33 0 -99.5 -5.5t-99.5 -5.5q-141 0 -249.5 127.5t-108.5 270.5zM223 1536q0 49 46 86t97 37q59 0 60 -57q0 -31 -37 -69t-68 -38h-86q0 6 -6 19.5t-6 21.5zM686 1507q0 45 52 102.5t95 57.5q76 0 76 -47q0 -37 -44 -90t-81 -53h-84q-14 -1 -14 30z " />
<glyph unicode="&#xdd;" horiz-adv-x="1144" d="M-50 956q0 92 27 273l25 39h39q68 -59 67 -144q0 -29 -8 -86t-8 -86q0 -195 194 -278q90 -39 363 -80l231 434q193 328 297 328q20 0 33.5 -30t13.5 -52q0 -14 -104 -180l-127 -205q-127 -252 -385 -842q-49 -111 -88 -110q-90 0 -90 83q0 80 65 207q72 137 82 203 q-4 2 -8 2q-8 0 -21 -6q-260 0 -421 133q-177 143 -177 397zM438 1389q0 57 96.5 163.5t151.5 106.5q16 0 80 48t74 48l47 -6q0 -55 39 -115q0 -10 -105 -86q-29 -2 -175 -111.5t-179 -109.5q-29 1 -29 62z" />
<glyph unicode="&#xe0;" horiz-adv-x="1118" d="M78 168q0 195 189.5 400.5t381.5 205.5q70 0 133 -88q59 -80 60 -154q0 -18 -141 -333q33 -18 100 -19q33 0 97.5 20.5t96.5 20.5q35 0 72 -88q-2 -66 -129 -104q-94 -29 -184 -29q-109 0 -158 94q-16 33 -33 35q-51 -33 -170 -78q-125 -49 -174 -49q-63 0 -104 53 q-37 47 -37 113zM217 182q37 -8 72 -8q172 0 321 225l111 170q-66 39 -119 39q-82 0 -225 -172q-135 -162 -160 -254zM266 1349l5 9q37 0 142 -27t122 -45q4 -31 112.5 -175.5t108.5 -176.5q0 -31 -62 -31q-55 0 -162.5 97t-107.5 151q0 14 -78 100t-80 98z" />
<glyph unicode="&#xe1;" horiz-adv-x="1120" d="M68 168q0 195 189.5 400.5t381.5 205.5q70 0 133 -88q59 -80 60 -154q0 -18 -141 -333q33 -18 100 -19q33 0 97.5 20.5t96.5 20.5q35 0 72 -88q-2 -66 -129 -104q-94 -29 -184 -29q-109 0 -158 94q-16 33 -33 35q-51 -33 -170 -78q-125 -49 -174 -49q-63 0 -104 53 q-37 47 -37 113zM207 182q37 -8 72 -8q172 0 321 225l111 170q-66 39 -119 39q-82 0 -225 -172q-135 -162 -160 -254zM395 889q0 57 96.5 163.5t151.5 106.5q16 0 80 48t74 48l47 -6q0 -55 39 -115q0 -10 -105 -86q-29 -2 -175 -111.5t-179 -109.5q-29 1 -29 62z" />
<glyph unicode="&#xe2;" horiz-adv-x="1130" d="M86 168q0 195 189.5 400.5t381.5 205.5q70 0 133 -88q59 -80 60 -154q0 -18 -141 -333q33 -18 100 -19q33 0 97.5 20.5t96.5 20.5q35 0 72 -88q-2 -66 -129 -104q-94 -29 -184 -29q-109 0 -158 94q-16 33 -33 35q-51 -33 -170 -78q-125 -49 -174 -49q-63 0 -104 53 q-37 47 -37 113zM225 182q37 -8 72 -8q172 0 321 225l111 170q-66 39 -119 39q-82 0 -225 -172q-135 -162 -160 -254zM303 938q0 47 289 399q16 -6 47 -12q0 -14 6 -43t6 -43q0 -31 -8 -92.5t-8 -92.5t15 -89t15 -81q0 -37 -22 -36q-59 0 -70 276l-2 59l-8 11 q-12 -27 -64 -97l-161 -215q-12 0 -23.5 21t-11.5 35z" />
<glyph unicode="&#xe3;" horiz-adv-x="1103" d="M61 168q0 195 189.5 400.5t381.5 205.5q70 0 133 -88q59 -80 60 -154q0 -18 -141 -333q33 -18 100 -19q33 0 97.5 20.5t96.5 20.5q35 0 72 -88q-2 -66 -129 -104q-94 -29 -184 -29q-109 0 -158 94q-16 33 -33 35q-51 -33 -170 -78q-125 -49 -174 -49q-63 0 -104 53 q-37 47 -37 113zM200 182q37 -8 72 -8q172 0 321 225l111 170q-66 39 -119 39q-82 0 -225 -172q-135 -162 -160 -254zM211 1054q0 39 98 95q92 53 138 53q8 0 88 -44t141 -44q164 0 248 127q43 -57 43 -74q0 -53 -103 -106q-92 -49 -151 -50h-68q-18 0 -97 40t-97 40 q-45 0 -120 -52t-65 -52q-16 0 -35.5 25.5t-19.5 41.5z" />
<glyph unicode="&#xe4;" horiz-adv-x="1079" d="M82 168q0 195 189.5 400.5t381.5 205.5q70 0 133 -88q59 -80 60 -154q0 -18 -141 -333q33 -18 100 -19q33 0 97.5 20.5t96.5 20.5q35 0 72 -88q-2 -66 -129 -104q-94 -29 -184 -29q-109 0 -158 94q-16 33 -33 35q-51 -33 -170 -78q-125 -49 -174 -49q-63 0 -104 53 q-37 47 -37 113zM221 182q37 -8 72 -8q172 0 321 225l111 170q-66 39 -119 39q-82 0 -225 -172q-135 -162 -160 -254zM197 1036q0 49 46 86t97 37q59 0 60 -57q0 -31 -37 -69t-68 -38h-86q0 6 -6 19.5t-6 21.5zM660 1007q0 45 52 102.5t95 57.5q76 0 76 -47q0 -37 -44 -90 t-81 -53h-84q-14 -1 -14 30z" />
<glyph unicode="&#xe5;" horiz-adv-x="1130" d="M90 168q0 195 189.5 400.5t381.5 205.5q70 0 133 -88q59 -80 60 -154q0 -18 -141 -333q33 -18 100 -19q33 0 97.5 20.5t96.5 20.5q35 0 72 -88q-2 -66 -129 -104q-94 -29 -184 -29q-109 0 -158 94q-16 33 -33 35q-51 -33 -170 -78q-125 -49 -174 -49q-63 0 -104 53 q-37 47 -37 113zM229 182q37 -8 72 -8q172 0 321 225l111 170q-66 39 -119 39q-82 0 -225 -172q-135 -162 -160 -254zM815 823q0 -154 -166 -154q-176 0 -176 138q0 162 176 161q70 0 118 -38.5t48 -106.5zM745 815q0 31 -8 65q-12 8 -25 23l-129 2q-47 -18 -47 -100 q0 -53 50 -78h112l39 26q8 29 8 62z" />
<glyph unicode="&#xe6;" horiz-adv-x="1835" d="M178 168q0 195 189.5 400.5t381.5 205.5q70 0 133 -88q59 -80 60 -154q0 -18 -141 -333q33 -18 100 -19q33 0 97.5 20.5t96.5 20.5q35 0 72 -88q-2 -66 -129 -104q-94 -29 -184 -29q-109 0 -158 94q-16 33 -33 35q-51 -33 -170 -78q-125 -49 -174 -49q-63 0 -104 53 q-37 47 -37 113zM317 182q37 -8 72 -8q172 0 321 225l111 170q-66 39 -119 39q-82 0 -225 -172q-135 -162 -160 -254zM971 291q0 207 223 368q205 150 420 150q47 0 75 -84q23 -66 23 -125q0 -135 -104 -217q-70 -53 -234 -107q-184 -59 -237 -90q59 -43 204 -43 q35 0 100.5 23.5t100.5 23.5q20 0 48 -44t28 -66q0 -57 -109 -88q-80 -23 -155 -23q-162 0 -267 78q-116 86 -116 244zM1149 334l256 108q141 76 190 189h-51q-86 0 -223 -109q-125 -100 -172 -188z" />
<glyph unicode="&#xe7;" horiz-adv-x="888" d="M148 281q0 133 57 233q33 57 148 188q2 0 116 60q76 39 119 39q137 0 137 -183q0 -25 -4 -49q-31 -18 -88 -59q-16 16 -16 39q0 20 12 69l-10 9q-82 0 -217 -138.5t-135 -220.5q0 -117 403 -116h14l2 -15q1 -7 1 -14q0 -64 -85 -103q-72 -33 -155 -32q-133 0 -216 80 t-83 213zM473 55h104v-121q150 -53 150 -186q0 -86 -86 -133q-70 -37 -162 -37v62q115 2 160 94q0 156 -166 155v166z" />
<glyph unicode="&#xe8;" horiz-adv-x="1050" d="M187 291q0 207 223 368q205 150 420 150q47 0 75 -84q23 -66 23 -125q0 -135 -104 -217q-70 -53 -234 -107q-184 -59 -237 -90q59 -43 204 -43q35 0 100.5 23.5t100.5 23.5q20 0 48 -44t28 -66q0 -57 -109 -88q-80 -23 -155 -23q-162 0 -267 78q-116 86 -116 244z M365 334l256 108q141 76 190 189h-51q-86 0 -223 -109q-125 -100 -172 -188zM356 1349l5 9q37 0 142 -27t122 -45q4 -31 112.5 -175.5t108.5 -176.5q0 -31 -62 -31q-55 0 -162.5 97t-107.5 151q0 14 -78 100t-80 98z" />
<glyph unicode="&#xe9;" horiz-adv-x="1001" d="M142 291q0 207 223 368q205 150 420 150q47 0 75 -84q23 -66 23 -125q0 -135 -104 -217q-70 -53 -234 -107q-184 -59 -237 -90q59 -43 204 -43q35 0 100.5 23.5t100.5 23.5q20 0 48 -44t28 -66q0 -57 -109 -88q-80 -23 -155 -23q-162 0 -267 78q-116 86 -116 244z M320 334l256 108q141 76 190 189h-51q-86 0 -223 -109q-125 -100 -172 -188zM450 889q0 57 96.5 163.5t151.5 106.5q16 0 80 48t74 48l47 -6q0 -55 39 -115q0 -10 -105 -86q-29 -2 -175 -111.5t-179 -109.5q-29 1 -29 62z" />
<glyph unicode="&#xea;" horiz-adv-x="1009" d="M150 291q0 207 223 368q205 150 420 150q47 0 75 -84q23 -66 23 -125q0 -135 -104 -217q-70 -53 -234 -107q-184 -59 -237 -90q59 -43 204 -43q35 0 100.5 23.5t100.5 23.5q20 0 48 -44t28 -66q0 -57 -109 -88q-80 -23 -155 -23q-162 0 -267 78q-116 86 -116 244z M328 334l256 108q141 76 190 189h-51q-86 0 -223 -109q-125 -100 -172 -188zM348 938q0 47 289 399q16 -6 47 -12q0 -14 6 -43t6 -43q0 -31 -8 -92.5t-8 -92.5t15 -89t15 -81q0 -37 -22 -36q-59 0 -70 276l-2 59l-8 11q-12 -27 -64 -97l-161 -215q-12 0 -23.5 21t-11.5 35z " />
<glyph unicode="&#xeb;" horiz-adv-x="940" d="M86 291q0 207 223 368q205 150 420 150q47 0 75 -84q23 -66 23 -125q0 -135 -104 -217q-70 -53 -234 -107q-184 -59 -237 -90q59 -43 204 -43q35 0 100.5 23.5t100.5 23.5q20 0 48 -44t28 -66q0 -57 -109 -88q-80 -23 -155 -23q-162 0 -267 78q-116 86 -116 244zM264 334 l256 108q141 76 190 189h-51q-86 0 -223 -109q-125 -100 -172 -188zM182 1036q0 49 46 86t97 37q59 0 60 -57q0 -31 -37 -69t-68 -38h-86q0 6 -6 19.5t-6 21.5zM645 1007q0 45 52 102.5t95 57.5q76 0 76 -47q0 -37 -44 -90t-81 -53h-84q-14 -1 -14 30z" />
<glyph unicode="&#xec;" horiz-adv-x="770" d="M649 600q0 -109 -53 -313.5t-109 -290.5h-40q-27 43 -27 117q0 137 59 313l109 305q61 -10 61 -131zM112 1349l5 9q37 0 142 -27t122 -45q4 -31 112.5 -175.5t108.5 -176.5q0 -31 -62 -31q-55 0 -162.5 97t-107.5 151q0 14 -78 100t-80 98z" />
<glyph unicode="&#xed;" horiz-adv-x="589" d="M438 600q0 -109 -53 -313.5t-109 -290.5h-40q-27 43 -27 117q0 137 59 313l109 305q61 -10 61 -131zM41 889q0 57 96.5 163.5t151.5 106.5q16 0 80 48t74 48l47 -6q0 -55 39 -115q0 -10 -105 -86q-29 -2 -175 -111.5t-179 -109.5q-29 1 -29 62z" />
<glyph unicode="&#xee;" horiz-adv-x="516" d="M418 600q0 -109 -53 -313.5t-109 -290.5h-40q-27 43 -27 117q0 137 59 313l109 305q61 -10 61 -131zM-90 938q0 47 289 399q16 -6 47 -12q0 -14 6 -43t6 -43q0 -31 -8 -92.5t-8 -92.5t15 -89t15 -81q0 -37 -22 -36q-59 0 -70 276l-2 59l-8 11q-12 -27 -64 -97l-161 -215 q-12 0 -23.5 21t-11.5 35z" />
<glyph unicode="&#xef;" horiz-adv-x="671" d="M528 600q0 -109 -53 -313.5t-109 -290.5h-40q-27 43 -27 117q0 137 59 313l109 305q61 -10 61 -131zM-82 1036q0 49 46 86t97 37q59 0 60 -57q0 -31 -37 -69t-68 -38h-86q0 6 -6 19.5t-6 21.5zM381 1007q0 45 52 102.5t95 57.5q76 0 76 -47q0 -37 -44 -90t-81 -53h-84 q-14 -1 -14 30z" />
<glyph unicode="&#xf1;" horiz-adv-x="942" d="M45 147q0 27 51 183q47 145 68 190q-12 20 -12 47l2 21q59 53 75 69q43 41 66 80q29 -10 96 -82q166 94 242 95q57 0 119 -101q57 -90 57 -153q0 -82 -47 -258q-53 -199 -103 -220q-59 82 -59 181q0 57 34 165.5t34 165.5q0 43 -47 43q-166 0 -453 -575q-16 -10 -33 -10 q-39 0 -65 63q-25 51 -25 96zM180 1054q0 39 98 95q92 53 138 53q8 0 88 -44t141 -44q164 0 248 127q43 -57 43 -74q0 -53 -103 -106q-92 -49 -151 -50h-68q-18 0 -97 40t-97 40q-45 0 -120 -52t-65 -52q-16 0 -35.5 25.5t-19.5 41.5z" />
<glyph unicode="&#xf2;" horiz-adv-x="987" d="M219 487q0 49 69.5 137.5t116.5 92.5q55 25 117 49q84 35 108 35q104 0 185 -103q72 -94 71 -202q0 -160 -173 -325t-333 -165q-161 0 -161 481zM364 186q145 0 268 90q135 100 136 240q0 98 -95 98q-57 0 -139 -43q-6 -12 -33.5 -31.5t-36.5 -29.5q-37 -54 -100 -324z M391 1349l5 9q37 0 142 -27t122 -45q4 -31 112.5 -175.5t108.5 -176.5q0 -31 -62 -31q-55 0 -162.5 97t-107.5 151q0 14 -78 100t-80 98z" />
<glyph unicode="&#xf3;" horiz-adv-x="937" d="M121 487q0 49 69.5 137.5t116.5 92.5q55 25 117 49q84 35 108 35q104 0 185 -103q72 -94 71 -202q0 -160 -173 -325t-333 -165q-161 0 -161 481zM266 186q145 0 268 90q135 100 136 240q0 98 -95 98q-57 0 -139 -43q-6 -12 -33.5 -31.5t-36.5 -29.5q-37 -54 -100 -324z M432 889q0 57 96.5 163.5t151.5 106.5q16 0 80 48t74 48l47 -6q0 -55 39 -115q0 -10 -105 -86q-29 -2 -175 -111.5t-179 -109.5q-29 1 -29 62z" />
<glyph unicode="&#xf4;" horiz-adv-x="923" d="M131 487q0 49 69.5 137.5t116.5 92.5q55 25 117 49q84 35 108 35q104 0 185 -103q72 -94 71 -202q0 -160 -173 -325t-333 -165q-161 0 -161 481zM276 186q145 0 268 90q135 100 136 240q0 98 -95 98q-57 0 -139 -43q-6 -12 -33.5 -31.5t-36.5 -29.5q-37 -54 -100 -324z M332 938q0 47 289 399q16 -6 47 -12q0 -14 6 -43t6 -43q0 -31 -8 -92.5t-8 -92.5t15 -89t15 -81q0 -37 -22 -36q-59 0 -70 276l-2 59l-8 11q-12 -27 -64 -97l-161 -215q-12 0 -23.5 21t-11.5 35z" />
<glyph unicode="&#xf5;" horiz-adv-x="849" d="M21 487q0 49 69.5 137.5t116.5 92.5q55 25 117 49q84 35 108 35q104 0 185 -103q72 -94 71 -202q0 -160 -173 -325t-333 -165q-161 0 -161 481zM166 186q145 0 268 90q135 100 136 240q0 98 -95 98q-57 0 -139 -43q-6 -12 -33.5 -31.5t-36.5 -29.5q-37 -54 -100 -324z M153 1054q0 39 98 95q92 53 138 53q8 0 88 -44t141 -44q164 0 248 127q43 -57 43 -74q0 -53 -103 -106q-92 -49 -151 -50h-68q-18 0 -97 40t-97 40q-45 0 -120 -52t-65 -52q-16 0 -35.5 25.5t-19.5 41.5z" />
<glyph unicode="&#xf6;" horiz-adv-x="864" d="M62 487q0 49 69.5 137.5t116.5 92.5q55 25 117 49q84 35 108 35q104 0 185 -103q72 -94 71 -202q0 -160 -173 -325t-333 -165q-161 0 -161 481zM207 186q145 0 268 90q135 100 136 240q0 98 -95 98q-57 0 -139 -43q-6 -12 -33.5 -31.5t-36.5 -29.5q-37 -54 -100 -324z M160 1036q0 49 46 86t97 37q59 0 60 -57q0 -31 -37 -69t-68 -38h-86q0 6 -6 19.5t-6 21.5zM623 1007q0 45 52 102.5t95 57.5q76 0 76 -47q0 -37 -44 -90t-81 -53h-84q-14 -1 -14 30z" />
<glyph unicode="&#xf9;" horiz-adv-x="950" d="M174 233q0 401 29 498q6 18 36.5 41t37.5 33h53q29 -33 31 -86q0 9 -1 9t-2 -101q0 -53 4.5 -157.5t4.5 -158.5q0 -55 -9 -86q10 -8 29 -8h55q76 0 218 248q27 45 165 328q41 -25 78 -129q-2 -23 -28 -78l-39 -82q-55 -160 -164 -299q-139 -178 -268 -178q-86 0 -158 60 t-72 146zM387 1349l5 9q37 0 142 -27t122 -45q4 -31 112.5 -175.5t108.5 -176.5q0 -31 -62 -31q-55 0 -162.5 97t-107.5 151q0 14 -78 100t-80 98z" />
<glyph unicode="&#xfa;" d="M92 233q0 401 29 498q6 18 36.5 41t37.5 33h53q29 -33 31 -86q0 9 -1 9t-2 -101q0 -53 4.5 -157.5t4.5 -158.5q0 -55 -9 -86q10 -8 29 -8h55q76 0 218 248q27 45 165 328q41 -25 78 -129q-2 -23 -28 -78l-39 -82q-55 -160 -164 -299q-139 -178 -268 -178q-86 0 -158 60 t-72 146zM444 889q0 57 96.5 163.5t151.5 106.5q16 0 80 48t74 48l47 -6q0 -55 39 -115q0 -10 -105 -86q-29 -2 -175 -111.5t-179 -109.5q-29 1 -29 62z" />
<glyph unicode="&#xfb;" horiz-adv-x="919" d="M104 233q0 401 29 498q6 18 36.5 41t37.5 33h53q29 -33 31 -86q0 9 -1 9t-2 -101q0 -53 4.5 -157.5t4.5 -158.5q0 -55 -9 -86q10 -8 29 -8h55q76 0 218 248q27 45 165 328q41 -25 78 -129q-2 -23 -28 -78l-39 -82q-55 -160 -164 -299q-139 -178 -268 -178q-86 0 -158 60 t-72 146zM346 938q0 47 289 399q16 -6 47 -12q0 -14 6 -43t6 -43q0 -31 -8 -92.5t-8 -92.5t15 -89t15 -81q0 -37 -22 -36q-59 0 -70 276l-2 59l-8 11q-12 -27 -64 -97l-161 -215q-12 0 -23.5 21t-11.5 35z" />
<glyph unicode="&#xfc;" horiz-adv-x="874" d="M59 233q0 401 29 498q6 18 36.5 41t37.5 33h53q29 -33 31 -86q0 9 -1 9t-2 -101q0 -53 4.5 -157.5t4.5 -158.5q0 -55 -9 -86q10 -8 29 -8h55q76 0 218 248q27 45 165 328q41 -25 78 -129q-2 -23 -28 -78l-39 -82q-55 -160 -164 -299q-139 -178 -268 -178q-86 0 -158 60 t-72 146zM199 1036q0 49 46 86t97 37q59 0 60 -57q0 -31 -37 -69t-68 -38h-86q0 6 -6 19.5t-6 21.5zM662 1007q0 45 52 102.5t95 57.5q76 0 76 -47q0 -37 -44 -90t-81 -53h-84q-14 -1 -14 30z" />
<glyph unicode="&#xfd;" horiz-adv-x="880" d="M51 412q0 90 23 188q33 141 90 141q20 0 48 -52t28 -77q0 -45 -29 -131t-29 -131q0 -125 177 -125l170 305q141 246 182 246q31 0 51.5 -27.5t20.5 -60.5q0 -20 -106.5 -201.5t-106.5 -201.5q0 -10 23.5 -18.5t23.5 -22.5q0 -16 -29 -41q-14 -10 -41 -33 q-66 -59 -113 -199q-27 -76 -61 -243q-33 -160 -62 -242q-23 -61 -77 -61q-57 0 -58 141q0 57 43 244q43 180 68 243q-139 53 -187.5 130t-48.5 229zM456 889q0 57 96.5 163.5t151.5 106.5q16 0 80 48t74 48l47 -6q0 -55 39 -115q0 -10 -105 -86q-29 -2 -175 -111.5 t-179 -109.5q-29 1 -29 62z" />
<glyph unicode="&#xff;" horiz-adv-x="847" d="M30 412q0 90 23 188q33 141 90 141q20 0 48 -52t28 -77q0 -45 -29 -131t-29 -131q0 -125 177 -125l170 305q141 246 182 246q31 0 51.5 -27.5t20.5 -60.5q0 -20 -106.5 -201.5t-106.5 -201.5q0 -10 23.5 -18.5t23.5 -22.5q0 -16 -29 -41q-14 -10 -41 -33 q-66 -59 -113 -199q-27 -76 -61 -243q-33 -160 -62 -242q-23 -61 -77 -61q-57 0 -58 141q0 57 43 244q43 180 68 243q-139 53 -187.5 130t-48.5 229zM223 1036q0 49 46 86t97 37q59 0 60 -57q0 -31 -37 -69t-68 -38h-86q0 6 -6 19.5t-6 21.5zM686 1007q0 45 52 102.5 t95 57.5q76 0 76 -47q0 -37 -44 -90t-81 -53h-84q-14 -1 -14 30z" />
<glyph unicode="&#x131;" horiz-adv-x="489" d="M352 600q0 -109 -53 -313.5t-109 -290.5h-40q-27 43 -27 117q0 137 59 313l109 305q61 -10 61 -131z" />
<glyph unicode="&#x152;" horiz-adv-x="2039" d="M-231 401q0 76 33 199q25 25 51 78q33 66 43 82q197 295 538 442q10 4 43 33q27 23 48 22q6 0 13 -5t15 -5q18 0 49 17.5t50 17.5q14 0 18 -25q12 14 8 35l166 -51l72 -82q53 -63 53 -82v-342q0 -229 -186 -422q-158 -164 -398 -256q-31 -12 -186 -82q-4 -4 -4 -14 q0 -14 6 -39h-33q-23 -2 -31 -2q-51 0 -161 90q-104 84 -133 137q-74 137 -74 254zM-45 449q0 -293 113 -293q70 0 321 82l11 -2q6 4 4 6q57 23 174 109.5t151 135.5q123 172 123 449q0 59 -24 119q-31 74 -82 73q-96 0 -383 -155q-115 -63 -207 -185q-41 -53 -152 -235 q-49 -79 -49 -104zM592 203q0 80 61 237q0 10 -6 33t-6 35q0 8 2 14q6 31 105 64q53 33 202 286q-20 74 -20 113q0 41 45 76l80 49q53 45 78 127h53q53 -57 86 -57q29 0 182 37q100 27 305 75q166 39 307 39q29 0 73 -41t44 -69q0 -25 -22.5 -45.5t-46.5 -20.5 q-10 0 -14.5 6t-14.5 6q-20 0 -68 -18q-53 -20 -71 -25q-84 -18 -349 -61q-211 -33 -342 -76q-74 -23 -131 -147q-70 -145 -110 -178q18 -6 37 -7q29 0 81 17.5t80 17.5q262 0 392 107q88 -72 88 -101q0 -66 -193 -121q-49 -14 -379 -83q-227 -49 -272 -84q-27 -20 -57 -107 q-41 -109 -48 -121q152 -31 160 -30q70 0 210 17t210 17q10 0 121 58l33 -52q-2 -12 4 -73q-137 -133 -531 -133q-358 0 -358 219z" />
<glyph unicode="&#x153;" horiz-adv-x="1779" d="M222 487q0 49 69.5 137.5t116.5 92.5q55 25 117 49q84 35 108 35q104 0 185 -103q72 -94 71 -202q0 -160 -173 -325t-333 -165q-161 0 -161 481zM367 186q145 0 268 90q135 100 136 240q0 98 -95 98q-57 0 -139 -43q-6 -12 -33.5 -31.5t-36.5 -29.5q-37 -54 -100 -324z M916 291q0 207 223 368q205 150 420 150q47 0 75 -84q23 -66 23 -125q0 -135 -104 -217q-70 -53 -234 -107q-184 -59 -237 -90q59 -43 204 -43q35 0 100.5 23.5t100.5 23.5q20 0 48 -44t28 -66q0 -57 -109 -88q-80 -23 -155 -23q-162 0 -267 78q-116 86 -116 244zM1094 334 l256 108q141 76 190 189h-51q-86 0 -223 -109q-125 -100 -172 -188z" />
<glyph unicode="&#x178;" horiz-adv-x="1128" d="M928 1538q0 49 46 86t97 37q59 0 60 -57q0 -31 -37 -69t-68 -38h-86q0 6 -6 19.5t-6 21.5zM1391 1509q0 45 52 102.5t95 57.5q76 0 76 -47q0 -37 -44 -90t-81 -53h-84q-14 -1 -14 30zM-66 956q0 92 27 273l25 39h39q68 -59 67 -144q0 -29 -8 -86t-8 -86q0 -195 194 -278 q90 -39 363 -80l231 434q193 328 297 328q20 0 33.5 -30t13.5 -52q0 -14 -104 -180l-127 -205q-127 -252 -385 -842q-49 -111 -88 -110q-90 0 -90 83q0 80 65 207q72 137 82 203q-4 2 -8 2q-8 0 -21 -6q-260 0 -421 133q-177 143 -177 397z" />
<glyph unicode="&#x2c6;" horiz-adv-x="446" d="M117 1438q0 47 289 399q16 -6 47 -12q0 -14 6 -43t6 -43q0 -31 -8 -92.5t-8 -92.5t15 -89t15 -81q0 -37 -22 -36q-59 0 -70 276l-2 59l-8 11q-12 -27 -64 -97l-161 -215q-12 0 -23.5 21t-11.5 35z" />
<glyph unicode="&#x2da;" horiz-adv-x="354" d="M379 1323q0 -154 -166 -154q-176 0 -176 138q0 162 176 161q70 0 118 -38.5t48 -106.5zM309 1315q0 31 -8 65q-12 8 -25 23l-129 2q-47 -18 -47 -100q0 -53 50 -78h112l39 26q8 29 8 62z" />
<glyph unicode="&#x2dc;" horiz-adv-x="792" d="M92 1554q0 39 98 95q92 53 138 53q8 0 88 -44t141 -44q164 0 248 127q43 -57 43 -74q0 -53 -103 -106q-92 -49 -151 -50h-68q-18 0 -97 40t-97 40q-45 0 -120 -52t-65 -52q-16 0 -35.5 25.5t-19.5 41.5z" />
<glyph unicode="&#x2000;" horiz-adv-x="927" />
<glyph unicode="&#x2001;" horiz-adv-x="1857" />
<glyph unicode="&#x2002;" horiz-adv-x="927" />
<glyph unicode="&#x2003;" horiz-adv-x="1857" />
<glyph unicode="&#x2004;" horiz-adv-x="618" />
<glyph unicode="&#x2005;" horiz-adv-x="462" />
<glyph unicode="&#x2006;" horiz-adv-x="309" />
<glyph unicode="&#x2007;" horiz-adv-x="309" />
<glyph unicode="&#x2008;" horiz-adv-x="231" />
<glyph unicode="&#x2009;" horiz-adv-x="370" />
<glyph unicode="&#x200a;" horiz-adv-x="102" />
<glyph unicode="&#x2010;" d="M111 461q0 16 2 28q55 39 241 78q168 35 260 35q184 0 201 -127q-53 -16 -149 -31q-162 -23 -322 -73q-123 -39 -158 -39q-39 0 -59 47q-16 37 -16 82z" />
<glyph unicode="&#x2011;" d="M111 461q0 16 2 28q55 39 241 78q168 35 260 35q184 0 201 -127q-53 -16 -149 -31q-162 -23 -322 -73q-123 -39 -158 -39q-39 0 -59 47q-16 37 -16 82z" />
<glyph unicode="&#x2012;" d="M111 461q0 16 2 28q55 39 241 78q168 35 260 35q184 0 201 -127q-53 -16 -149 -31q-162 -23 -322 -73q-123 -39 -158 -39q-39 0 -59 47q-16 37 -16 82z" />
<glyph unicode="&#x2013;" horiz-adv-x="1024" d="M205 512v205h614v-205h-614z" />
<glyph unicode="&#x2014;" horiz-adv-x="1431" d="M90 461q0 16 2 28q51 35 502 76q397 37 553 37q184 0 199 -127q-94 -33 -285 -57l-301 -33q-463 -53 -596 -53q-37 0 -58 49q-16 37 -16 80z" />
<glyph unicode="&#x2018;" horiz-adv-x="161" d="M10 1122q0 41 17 113q20 90 47 90q49 0 98 -86v-74q0 -266 -16 -315l2 -6q-8 -4 -21 -8q-53 0 -94 118q-33 96 -33 168z" />
<glyph unicode="&#x2019;" horiz-adv-x="161" d="M10 1122q0 41 17 113q20 90 47 90q49 0 98 -86v-74q0 -266 -16 -315l2 -6q-8 -4 -21 -8q-53 0 -94 118q-33 96 -33 168z" />
<glyph unicode="&#x201a;" horiz-adv-x="362" d="M88 78q0 41 16 112q20 90 48 91q49 0 98 -86v-74q0 -266 -17 -316l3 -6q-8 -4 -21 -8q-53 0 -94 119q-33 96 -33 168z" />
<glyph unicode="&#x201c;" horiz-adv-x="372" d="M-10 1057q0 94 47 260q121 -47 121 -119q0 -55 -43 -340h-41q-84 62 -84 199zM233 1147q0 43 17 115q20 90 49 90q49 0 100 -86v-76q0 -270 -18 -318l2 -8q-8 -2 -21 -6q-53 0 -94 119q-35 100 -35 170z" />
<glyph unicode="&#x201d;" horiz-adv-x="372" d="M-10 1057q0 94 47 260q121 -47 121 -119q0 -55 -43 -340h-41q-84 62 -84 199zM233 1147q0 43 17 115q20 90 49 90q49 0 100 -86v-76q0 -270 -18 -318l2 -8q-8 -2 -21 -6q-53 0 -94 119q-35 100 -35 170z" />
<glyph unicode="&#x201e;" horiz-adv-x="595" d="M76 -8q0 94 47 260q121 -47 121 -119q0 -55 -45 -340h-41q-82 62 -82 199zM319 82q0 43 17 115q20 90 49 90q49 0 98 -86v-76q0 -270 -16 -318l2 -8q-8 -2 -20 -6q-53 0 -95 119q-35 100 -35 170z" />
<glyph unicode="&#x2026;" horiz-adv-x="1110" d="M-88 117q0 35 22 82q25 55 56 55q41 0 83 -55.5t42 -98.5q0 -39 -30 -63.5t-71 -24.5q-102 1 -102 105zM367 133q0 20 6 58t6 59q8 0 27.5 6t29.5 6q37 0 84 -58.5t47 -94.5q0 -43 -34.5 -75t-77.5 -32q-88 0 -88 131zM827 168q0 10 7.5 30.5t7.5 30.5q57 14 51 15 q27 0 75 -57.5t48 -84.5q0 -82 -74 -82q-59 0 -94 64q-21 37 -21 84z" />
<glyph unicode="&#x202f;" horiz-adv-x="370" />
<glyph unicode="&#x2039;" horiz-adv-x="909" d="M80 403v97q178 20 489 297q109 96 115 96q20 0 51 -37t31 -57q0 -66 -197 -211q-225 -166 -254 -209q174 -33 199 -39q117 -31 182 -80q-39 -66 -78 -65q-123 0 -241 20q-158 27 -221 78q-76 61 -76 110z" />
<glyph unicode="&#x203a;" horiz-adv-x="786" d="M109 737l14 88q127 -70 307 -194q242 -168 242 -217q0 -33 -25 -66q-117 -27 -362 -205q-94 29 -95 76q0 78 271 238q-27 27 -189 127q-118 73 -163 153z" />
<glyph unicode="&#x205f;" horiz-adv-x="462" />
<glyph unicode="&#x2122;" horiz-adv-x="1513" d="M45 1231q0 35 82 65q66 25 113 25q20 0 59 -12.5t59 -12.5t62.5 12.5t62.5 12.5q23 0 125 -43q94 -37 131 -57q78 -43 117 -154q47 -133 84 -174h21l106 162q66 98 92 170h53q78 -76 93 -191q18 -147 45 -203q4 -10 90 -149q72 -117 71 -137q0 -20 -14 -43t-33 -23 q-90 0 -176 176l-112 250l-78.5 -141t-106.5 -94q-43 0 -112 71l-105 107l2 -17q2 -256 -80 -256q-80 0 -80 130q0 35 10.5 104.5t10.5 103.5v217q-49 2 -102 3h-113q0 -63 7 -192.5t7 -192.5q0 -102 -14 -185h-68q-47 61 -65 326q-16 229 -74 229q-14 0 -39.5 -2t-40.5 -2 q-90 0 -90 117z" />
<glyph unicode="&#xe000;" horiz-adv-x="910" d="M0 910h910v-910h-910v910z" />
<glyph unicode="&#xfb01;" horiz-adv-x="1409" d="M1009 113q0 133 60 313l106 305q63 -10 64 -131q0 -109 -54.5 -313.5t-109.5 -290.5h-41q-25 43 -25 117zM1243 969q0 35 25.5 101.5t51.5 72.5q72 -47 72 -142q0 -88 -61 -88q-37 0 -86 43zM-61 442q0 82 81 121q41 18 158 43q76 14 97.5 32.5t41.5 86.5q10 35 25 76 q61 193 217 383q178 219 354 219q68 0 115 -68q43 -59 43 -131q0 -158 -24 -198q-29 -49 -170 -101q-18 20 -41 27l75 72q47 43 47 88q0 135 -22 135q-178 0 -432 -441q-10 -18 -24.5 -25t-22.5 -20v-41q49 4 198 29q127 20 201 21q27 0 61.5 -45.5t34.5 -73.5l-2 -8 q-10 -41 -102 -54l-125 -12q-174 -20 -336 -88q-6 -31 -22 -92q-2 -16 -3 -189q0 -240 -69 -239q-37 0 -55 26q-61 190 -62 256l51 -24q20 20 21 125v57q0 12 -2 33v22q-59 -10 -219 -96h-4q-84 0 -84 94z" />
<glyph unicode="&#xfb02;" horiz-adv-x="1507" d="M983 41q0 43 211 553q184 444 260 608q88 -72 88 -131q0 -66 -211 -557q-203 -473 -269 -580q-79 11 -79 107zM-61 442q0 82 81 121q41 18 158 43q76 14 97.5 32.5t41.5 86.5q10 35 25 76q61 193 217 383q178 219 354 219q68 0 115 -68q43 -59 43 -131q0 -158 -24 -198 q-29 -49 -170 -101q-18 20 -41 27l75 72q47 43 47 88q0 135 -22 135q-178 0 -432 -441q-10 -18 -24.5 -25t-22.5 -20v-41q49 4 198 29q127 20 201 21q27 0 61.5 -45.5t34.5 -73.5l-2 -8q-10 -41 -102 -54l-125 -12q-174 -20 -336 -88q-6 -31 -22 -92q-2 -16 -3 -189 q0 -240 -69 -239q-37 0 -55 26q-61 190 -62 256l51 -24q20 20 21 125v57q0 12 -2 33v22q-59 -10 -219 -96h-4q-84 0 -84 94z" />
<glyph unicode="&#xfb03;" horiz-adv-x="2410" d="M2011 113q0 133 60 313l106 305q63 -10 64 -131q0 -109 -54.5 -313.5t-109.5 -290.5h-41q-25 43 -25 117zM2245 969q0 35 25.5 101.5t51.5 72.5q72 -47 72 -142q0 -88 -61 -88q-37 0 -86 43zM940 442q0 82 81 121q41 18 158 43q76 14 97.5 32.5t41.5 86.5q10 35 25 76 q61 193 217 383q178 219 354 219q68 0 115 -68q43 -59 43 -131q0 -158 -24 -198q-29 -49 -170 -101q-18 20 -41 27l75 72q47 43 47 88q0 135 -22 135q-178 0 -432 -441q-10 -18 -24.5 -25t-22.5 -20v-41q49 4 198 29q127 20 201 21q27 0 61.5 -45.5t34.5 -73.5l-2 -8 q-10 -41 -102 -54l-125 -12q-174 -20 -336 -88q-6 -31 -22 -92q-2 -16 -3 -189q0 -240 -69 -239q-37 0 -55 26q-61 190 -62 256l51 -24q20 20 21 125v57q0 12 -2 33v22q-59 -10 -219 -96h-4q-84 0 -84 94zM-61 442q0 82 81 121q41 18 158 43q76 14 97.5 32.5t41.5 86.5 q10 35 25 76q61 193 217 383q178 219 354 219q68 0 115 -68q43 -59 43 -131q0 -158 -24 -198q-29 -49 -170 -101q-18 20 -41 27l75 72q47 43 47 88q0 135 -22 135q-178 0 -432 -441q-10 -18 -24.5 -25t-22.5 -20v-41q49 4 198 29q127 20 201 21q27 0 61.5 -45.5t34.5 -73.5 l-2 -8q-10 -41 -102 -54l-125 -12q-174 -20 -336 -88q-6 -31 -22 -92q-2 -16 -3 -189q0 -240 -69 -239q-37 0 -55 26q-61 190 -62 256l51 -24q20 20 21 125v57q0 12 -2 33v22q-59 -10 -219 -96h-4q-84 0 -84 94z" />
<glyph unicode="&#xfb04;" horiz-adv-x="2508" d="M1985 41q0 43 211 553q184 444 260 608q88 -72 88 -131q0 -66 -211 -557q-203 -473 -269 -580q-79 11 -79 107zM940 442q0 82 81 121q41 18 158 43q76 14 97.5 32.5t41.5 86.5q10 35 25 76q61 193 217 383q178 219 354 219q68 0 115 -68q43 -59 43 -131q0 -158 -24 -198 q-29 -49 -170 -101q-18 20 -41 27l75 72q47 43 47 88q0 135 -22 135q-178 0 -432 -441q-10 -18 -24.5 -25t-22.5 -20v-41q49 4 198 29q127 20 201 21q27 0 61.5 -45.5t34.5 -73.5l-2 -8q-10 -41 -102 -54l-125 -12q-174 -20 -336 -88q-6 -31 -22 -92q-2 -16 -3 -189 q0 -240 -69 -239q-37 0 -55 26q-61 190 -62 256l51 -24q20 20 21 125v57q0 12 -2 33v22q-59 -10 -219 -96h-4q-84 0 -84 94zM-61 442q0 82 81 121q41 18 158 43q76 14 97.5 32.5t41.5 86.5q10 35 25 76q61 193 217 383q178 219 354 219q68 0 115 -68q43 -59 43 -131 q0 -158 -24 -198q-29 -49 -170 -101q-18 20 -41 27l75 72q47 43 47 88q0 135 -22 135q-178 0 -432 -441q-10 -18 -24.5 -25t-22.5 -20v-41q49 4 198 29q127 20 201 21q27 0 61.5 -45.5t34.5 -73.5l-2 -8q-10 -41 -102 -54l-125 -12q-174 -20 -336 -88q-6 -31 -22 -92 q-2 -16 -3 -189q0 -240 -69 -239q-37 0 -55 26q-61 190 -62 256l51 -24q20 20 21 125v57q0 12 -2 33v22q-59 -10 -219 -96h-4q-84 0 -84 94z" />
</font>
</defs>
</svg>
